<?xml version="1.0" encoding="UTF-8"?>
<svg width="708px" height="190px" viewBox="0 0 708 190" version="1.1" xmlns="http://www.w3.org/2000/svg" xmlns:xlink="http://www.w3.org/1999/xlink">
    <!-- Generator: Sketch 50.1 (55044) - http://www.bohemiancoding.com/sketch -->
    <title>Solar</title>
    <desc>Created with Sketch.</desc>
    <defs></defs>
    <g id="Page-1" stroke="none" stroke-width="1" fill="none" fill-rule="evenodd" shape-rendering="geometricPrecision">
        <g id="Solar" stroke="#000000" stroke-width="0.5">
            <path d="M74.58,189.3 L175.27,189.3" id="Shape"></path>
            <path d="M175.27,189.3 L175.27,177.46" id="Shape"></path>
            <path d="M168.65,177.46 L193.73,177.46" id="Shape"></path>
            <path d="M275.95,189.3 L187.11,189.3" id="Shape"></path>
            <path d="M187.11,189.3 L187.11,177.46" id="Shape"></path>
            <path d="M193.73,177.46 L193.73,141.69" id="Shape"></path>
            <path d="M168.65,141.69 L193.73,141.69" id="Shape"></path>
            <path d="M177.48,158.98 L177.07,157.98 M177.07,157.98 L176.33,157.19 M176.33,157.19 L175.36,156.72 M175.36,156.72 L174.28,156.63 M174.28,156.63 L173.24,156.93 M173.24,156.93 L172.38,157.59 M172.38,157.59 L171.81,158.51 M171.81,158.51 L171.61,159.57 M171.61,159.57 L171.81,160.64 M171.81,160.64 L172.38,161.56 M172.38,161.56 L173.24,162.22 M173.24,162.22 L174.28,162.52 M174.28,162.52 L175.36,162.43 M175.36,162.43 L176.33,161.96 M176.33,161.96 L177.07,161.17 M177.07,161.17 L177.48,160.17" id="Shape"></path>
            <path d="M174.57,158.98 L180.5,158.98" id="Shape"></path>
            <path d="M180.5,158.98 L180.5,160.17" id="Shape"></path>
            <path d="M180.5,160.17 L174.57,160.17" id="Shape"></path>
            <path d="M174.57,160.17 L174.57,158.98" id="Shape"></path>
            <path d="M275.95,189.3 L275.95,177.46" id="Shape"></path>
            <path d="M376.63,189.3 L287.8,189.3" id="Shape"></path>
            <path d="M287.8,189.3 L287.8,177.46" id="Shape"></path>
            <path d="M388.48,189.3 L461.3,189.3" id="Shape"></path>
            <path d="M461.3,189.3 L461.3,177.46" id="Shape"></path>
            <path d="M388.48,189.3 L388.48,177.46" id="Shape"></path>
            <path d="M376.63,189.3 L376.63,177.46" id="Shape"></path>
            <path d="M74.58,189.3 L74.58,177.46" id="Shape"></path>
            <path d="M22.91,177.46 L126.26,177.46" id="Shape"></path>
            <path d="M126.26,177.46 L126.26,139.25" id="Shape"></path>
            <path d="M228.57,177.46 L317.41,177.46" id="Shape"></path>
            <path d="M228.57,177.46 L228.57,112.48" id="Shape"></path>
            <path d="M246.34,177.46 L246.34,115.6" id="Shape"></path>
            <path d="M281.87,177.46 L281.87,115.6" id="Shape"></path>
            <path d="M317.41,177.46 L317.41,112.48" id="Shape"></path>
            <path d="M228.57,112.48 L317.41,112.48" id="Shape"></path>
            <path d="M277.83,141.12 L277.83,148.82" id="Shape"></path>
            <path d="M277.83,148.82 L276.29,148.82" id="Shape"></path>
            <path d="M276.29,148.82 L276.29,141.12" id="Shape"></path>
            <path d="M276.29,141.12 L277.83,141.12" id="Shape"></path>
            <path d="M228.57,168.66 L317.41,168.66" id="Shape"></path>
            <path d="M228.57,115.6 L317.41,115.6" id="Shape"></path>
            <path d="M313.37,141.12 L313.37,148.82" id="Shape"></path>
            <path d="M313.37,148.82 L311.83,148.82" id="Shape"></path>
            <path d="M311.83,148.82 L311.83,141.12" id="Shape"></path>
            <path d="M311.83,141.12 L313.37,141.12" id="Shape"></path>
            <path d="M352.94,177.46 L412.17,177.46" id="Shape"></path>
            <path d="M352.94,177.46 L352.94,117.21" id="Shape"></path>
            <path d="M412.17,177.46 L412.17,117.21" id="Shape"></path>
            <path d="M352.94,117.21 L412.17,117.21" id="Shape"></path>
            <path d="M359.03,171.33 L379.72,171.33" id="Shape"></path>
            <path d="M385.39,171.33 L406.09,171.33" id="Shape"></path>
            <path d="M359.03,171.33 L359.03,129.69" id="Shape"></path>
            <path d="M406.09,171.33 L406.09,129.69" id="Shape"></path>
            <path d="M359.03,129.69 L379.72,129.69" id="Shape"></path>
            <path d="M385.39,129.69 L406.09,129.69" id="Shape"></path>
            <path d="M385.39,171.33 L385.39,129.69" id="Shape"></path>
            <path d="M379.72,171.33 L379.72,129.69" id="Shape"></path>
            <path d="M373.28,141.7 L365.46,141.7" id="Shape"></path>
            <path d="M365.46,141.7 L365.46,143.26" id="Shape"></path>
            <path d="M365.46,143.26 L373.28,143.26" id="Shape"></path>
            <path d="M373.28,143.26 L373.28,141.7" id="Shape"></path>
            <path d="M168.65,177.46 L168.65,141.69" id="Shape"></path>
            <path d="M105.77,148.8 L146.74,129.69" id="Shape"></path>
            <path d="M104.97,147.08 L145.94,127.98" id="Shape"></path>
            <path d="M104.97,147.08 L105.77,148.8" id="Shape"></path>
            <path d="M145.94,127.98 L146.74,129.69" id="Shape"></path>
            <path d="M74.58,177.46 L74.58,139.25" id="Shape"></path>
            <path d="M22.91,177.46 L22.91,139.25" id="Shape"></path>
            <path d="M461.24,106.22 L461.24,65.66" id="Shape"></path>
            <path d="M470.56,106.22 L470.56,65.66" id="Shape"></path>
            <path d="M467.27,106.22 L470.56,102.93" id="Shape"></path>
            <path d="M470.56,102.93 L461.24,93.61" id="Shape"></path>
            <path d="M461.24,93.61 L470.56,84.3" id="Shape"></path>
            <path d="M470.56,84.3 L461.24,74.98" id="Shape"></path>
            <path d="M461.24,74.98 L470.56,65.66" id="Shape"></path>
            <path d="M461.24,177.46 L573.03,177.46" id="Shape"></path>
            <path d="M461.24,65.66 L470.56,65.66" id="Shape"></path>
            <path d="M461.24,65.66 L573.03,65.66" id="Shape"></path>
            <path d="M461.24,74.98 L573.03,74.98" id="Shape"></path>
            <path d="M461.24,74.98 L470.56,65.66" id="Shape"></path>
            <path d="M470.56,65.66 L479.87,74.98" id="Shape"></path>
            <path d="M479.87,74.98 L489.19,65.66" id="Shape"></path>
            <path d="M489.19,65.66 L498.5,74.98" id="Shape"></path>
            <path d="M498.5,74.98 L507.82,65.66" id="Shape"></path>
            <path d="M507.82,65.66 L517.14,74.98" id="Shape"></path>
            <path d="M517.14,74.98 L526.45,65.66" id="Shape"></path>
            <path d="M526.45,65.66 L535.77,74.98" id="Shape"></path>
            <path d="M535.77,74.98 L545.09,65.66" id="Shape"></path>
            <path d="M545.09,65.66 L554.4,74.98" id="Shape"></path>
            <path d="M554.4,74.98 L563.72,65.66" id="Shape"></path>
            <path d="M563.72,65.66 L573.03,74.98" id="Shape"></path>
            <path d="M461.24,65.66 L461.24,74.98" id="Shape"></path>
            <path d="M573.03,65.66 L573.03,74.98" id="Shape"></path>
            <path d="M573.03,177.46 L573.03,65.66" id="Shape"></path>
            <path d="M563.72,177.46 L563.72,65.66" id="Shape"></path>
            <path d="M563.72,177.46 L573.03,168.14" id="Shape"></path>
            <path d="M573.03,168.14 L563.72,158.83" id="Shape"></path>
            <path d="M563.72,158.83 L573.03,149.51" id="Shape"></path>
            <path d="M573.03,149.51 L563.72,140.19" id="Shape"></path>
            <path d="M563.72,140.19 L573.03,130.88" id="Shape"></path>
            <path d="M573.03,130.88 L563.72,121.56" id="Shape"></path>
            <path d="M563.72,121.56 L573.03,112.24" id="Shape"></path>
            <path d="M573.03,112.24 L563.72,102.93" id="Shape"></path>
            <path d="M563.72,102.93 L573.03,93.61" id="Shape"></path>
            <path d="M573.03,93.61 L563.72,84.3" id="Shape"></path>
            <path d="M563.72,84.3 L573.03,74.98" id="Shape"></path>
            <path d="M573.03,74.98 L563.72,65.66" id="Shape"></path>
            <path d="M517.14,99.43 L524.1,100.34 M524.1,100.34 L531.09,100.85 M531.09,100.85 L538.11,100.97 M538.11,100.97 L545.12,100.7 M545.12,100.7 L552.1,100.02 M552.1,100.02 L559.04,98.96 M559.04,98.96 L565.9,97.51 M565.9,97.51 L572.68,95.67 M572.68,95.67 L579.33,93.45 M579.33,93.45 L585.86,90.86 M585.86,90.86 L592.22,87.91 M592.22,87.91 L598.41,84.6 M598.41,84.6 L604.4,80.95 M604.4,80.95 L610.18,76.97 M610.18,76.97 L615.72,72.67 M615.72,72.67 L621.02,68.06 M621.02,68.06 L626.04,63.16 M626.04,63.16 L630.78,57.99 M630.78,57.99 L635.22,52.56 M635.22,52.56 L639.35,46.88 M639.35,46.88 L643.15,40.98" id="Shape"></path>
            <path d="M493.85,99.43 L499.55,100.4 M499.55,100.4 L505.3,100.99 M505.3,100.99 L511.08,101.2 M511.08,101.2 L516.86,101.03 M516.86,101.03 L522.61,100.48 M522.61,100.48 L528.32,99.54 M528.32,99.54 L533.95,98.24 M533.95,98.24 L539.48,96.56 M539.48,96.56 L544.89,94.52 M544.89,94.52 L550.16,92.13 M550.16,92.13 L555.25,89.4 M555.25,89.4 L560.16,86.34 M560.16,86.34 L564.85,82.96 M564.85,82.96 L569.31,79.28 M569.31,79.28 L573.51,75.31 M573.51,75.31 L577.44,71.07 M577.44,71.07 L581.09,66.58 M581.09,66.58 L584.43,61.86 M584.43,61.86 L587.45,56.93 M587.45,56.93 L590.14,51.82 M590.14,51.82 L592.49,46.53 M592.49,46.53 L594.48,41.11" id="Shape"></path>
            <path d="M493.85,74.98 L493.85,83.65" id="Shape"></path>
            <path d="M496.08,84.54 L495.88,84.9 M495.88,84.9 L495.34,85.19 M495.34,85.19 L494.54,85.38 M494.54,85.38 L493.61,85.42 M493.61,85.42 L492.73,85.3 M492.73,85.3 L492.04,85.06 M492.04,85.06 L491.67,84.72 M491.67,84.72 L491.67,84.35 M491.67,84.35 L492.04,84.02 M492.04,84.02 L492.73,83.77 M492.73,83.77 L493.61,83.66 M493.61,83.66 L494.54,83.69 M494.54,83.69 L495.34,83.88 M495.34,83.88 L495.88,84.18 M495.88,84.18 L496.08,84.54" id="Shape"></path>
            <path d="M496.08,86.3 L495.88,86.66 M495.88,86.66 L495.34,86.96 M495.34,86.96 L494.54,87.15 M494.54,87.15 L493.61,87.18 M493.61,87.18 L492.73,87.07 M492.73,87.07 L492.04,86.82 M492.04,86.82 L491.67,86.49 M491.67,86.49 L491.67,86.12 M491.67,86.12 L492.04,85.79 M492.04,85.79 L492.73,85.54 M492.73,85.54 L493.61,85.43 M493.61,85.43 L494.54,85.46 M494.54,85.46 L495.34,85.65 M495.34,85.65 L495.88,85.95 M495.88,85.95 L496.08,86.3" id="Shape"></path>
            <path d="M496.08,88.07 L495.88,88.43 M495.88,88.43 L495.34,88.73 M495.34,88.73 L494.54,88.92 M494.54,88.92 L493.61,88.95 M493.61,88.95 L492.73,88.84 M492.73,88.84 L492.04,88.59 M492.04,88.59 L491.67,88.26 M491.67,88.26 L491.67,87.89 M491.67,87.89 L492.04,87.55 M492.04,87.55 L492.73,87.31 M492.73,87.31 L493.61,87.19 M493.61,87.19 L494.54,87.23 M494.54,87.23 L495.34,87.42 M495.34,87.42 L495.88,87.71 M495.88,87.71 L496.08,88.07" id="Shape"></path>
            <path d="M496.08,89.84 L495.88,90.2 M495.88,90.2 L495.34,90.5 M495.34,90.5 L494.54,90.68 M494.54,90.68 L493.61,90.72 M493.61,90.72 L492.73,90.61 M492.73,90.61 L492.04,90.36 M492.04,90.36 L491.67,90.03 M491.67,90.03 L491.67,89.66 M491.67,89.66 L492.04,89.32 M492.04,89.32 L492.73,89.08 M492.73,89.08 L493.61,88.96 M493.61,88.96 L494.54,89 M494.54,89 L495.34,89.19 M495.34,89.19 L495.88,89.48 M495.88,89.48 L496.08,89.84" id="Shape"></path>
            <path d="M496.08,91.61 L495.88,91.97 M495.88,91.97 L495.34,92.27 M495.34,92.27 L494.54,92.45 M494.54,92.45 L493.61,92.49 M493.61,92.49 L492.73,92.38 M492.73,92.38 L492.04,92.13 M492.04,92.13 L491.67,91.8 M491.67,91.8 L491.67,91.43 M491.67,91.43 L492.04,91.09 M492.04,91.09 L492.73,90.85 M492.73,90.85 L493.61,90.73 M493.61,90.73 L494.54,90.77 M494.54,90.77 L495.34,90.95 M495.34,90.95 L495.88,91.25 M495.88,91.25 L496.08,91.61" id="Shape"></path>
            <path d="M493.85,92.5 L493.85,96.83" id="Shape"></path>
            <path d="M492.55,98.13 L492.72,97.48 M492.72,97.48 L493.2,97.01 M493.2,97.01 L493.85,96.83 M493.85,96.83 L494.5,97.01 M494.5,97.01 L494.97,97.48 M494.97,97.48 L495.15,98.13 M495.15,98.13 L494.97,98.78 M494.97,98.78 L494.5,99.26 M494.5,99.26 L493.85,99.43 M493.85,99.43 L493.2,99.26 M493.2,99.26 L492.72,98.78 M492.72,98.78 L492.55,98.13" id="Shape"></path>
            <path d="M492.81,124.62 L493,123.9 M493,123.9 L493.53,123.38 M493.53,123.38 L494.24,123.19 M494.24,123.19 L494.96,123.38 M494.96,123.38 L495.48,123.9 M495.48,123.9 L495.67,124.62 M495.67,124.62 L495.48,125.33 M495.48,125.33 L494.96,125.85 M494.96,125.85 L494.24,126.05 M494.24,126.05 L493.53,125.85 M493.53,125.85 L493,125.33 M493,125.33 L492.81,124.62" id="Shape"></path>
            <path d="M494.72,125.96 L494.72,130.73" id="Shape"></path>
            <path d="M493.76,125.96 L493.76,130.73" id="Shape"></path>
            <path d="M489.47,130.73 L499.01,130.73" id="Shape"></path>
            <path d="M489.47,132.16 L499.01,132.16" id="Shape"></path>
            <path d="M497.1,132.16 L497.1,159.83" id="Shape"></path>
            <path d="M491.38,132.16 L491.38,159.83" id="Shape"></path>
            <path d="M489.47,159.83 L499.01,159.83" id="Shape"></path>
            <path d="M488.04,161.26 L500.44,161.26" id="Shape"></path>
            <path d="M488.04,162.69 L500.44,162.69" id="Shape"></path>
            <path d="M499.01,130.73 L499.01,132.16" id="Shape"></path>
            <path d="M489.47,130.73 L489.47,132.16" id="Shape"></path>
            <path d="M499.01,159.83 L499.01,161.26" id="Shape"></path>
            <path d="M489.47,159.83 L489.47,161.26" id="Shape"></path>
            <path d="M500.44,161.26 L500.44,162.69" id="Shape"></path>
            <path d="M488.04,161.26 L488.04,162.69" id="Shape"></path>
            <path d="M489.47,162.69 L489.47,177.46" id="Shape"></path>
            <path d="M494.24,162.69 L494.24,177.46" id="Shape"></path>
            <path d="M499.01,162.69 L499.01,177.46" id="Shape"></path>
            <path d="M489.47,177.46 L494.24,162.69" id="Shape"></path>
            <path d="M494.24,177.46 L489.47,162.69" id="Shape"></path>
            <path d="M494.24,177.46 L499.01,162.69" id="Shape"></path>
            <path d="M499.01,177.46 L494.24,162.69" id="Shape"></path>
            <path d="M517.14,74.98 L517.14,83.65" id="Shape"></path>
            <path d="M519.37,84.54 L519.17,84.9 M519.17,84.9 L518.63,85.19 M518.63,85.19 L517.83,85.38 M517.83,85.38 L516.9,85.42 M516.9,85.42 L516.02,85.3 M516.02,85.3 L515.33,85.06 M515.33,85.06 L514.96,84.72 M514.96,84.72 L514.96,84.35 M514.96,84.35 L515.33,84.02 M515.33,84.02 L516.02,83.77 M516.02,83.77 L516.9,83.66 M516.9,83.66 L517.83,83.69 M517.83,83.69 L518.63,83.88 M518.63,83.88 L519.17,84.18 M519.17,84.18 L519.37,84.54" id="Shape"></path>
            <path d="M519.37,86.3 L519.17,86.66 M519.17,86.66 L518.63,86.96 M518.63,86.96 L517.83,87.15 M517.83,87.15 L516.9,87.18 M516.9,87.18 L516.02,87.07 M516.02,87.07 L515.33,86.82 M515.33,86.82 L514.96,86.49 M514.96,86.49 L514.96,86.12 M514.96,86.12 L515.33,85.79 M515.33,85.79 L516.02,85.54 M516.02,85.54 L516.9,85.43 M516.9,85.43 L517.83,85.46 M517.83,85.46 L518.63,85.65 M518.63,85.65 L519.17,85.95 M519.17,85.95 L519.37,86.3" id="Shape"></path>
            <path d="M519.37,88.07 L519.17,88.43 M519.17,88.43 L518.63,88.73 M518.63,88.73 L517.83,88.92 M517.83,88.92 L516.9,88.95 M516.9,88.95 L516.02,88.84 M516.02,88.84 L515.33,88.59 M515.33,88.59 L514.96,88.26 M514.96,88.26 L514.96,87.89 M514.96,87.89 L515.33,87.55 M515.33,87.55 L516.02,87.31 M516.02,87.31 L516.9,87.19 M516.9,87.19 L517.83,87.23 M517.83,87.23 L518.63,87.42 M518.63,87.42 L519.17,87.71 M519.17,87.71 L519.37,88.07" id="Shape"></path>
            <path d="M519.37,89.84 L519.17,90.2 M519.17,90.2 L518.63,90.5 M518.63,90.5 L517.83,90.68 M517.83,90.68 L516.9,90.72 M516.9,90.72 L516.02,90.61 M516.02,90.61 L515.33,90.36 M515.33,90.36 L514.96,90.03 M514.96,90.03 L514.96,89.66 M514.96,89.66 L515.33,89.32 M515.33,89.32 L516.02,89.08 M516.02,89.08 L516.9,88.96 M516.9,88.96 L517.83,89 M517.83,89 L518.63,89.19 M518.63,89.19 L519.17,89.48 M519.17,89.48 L519.37,89.84" id="Shape"></path>
            <path d="M519.37,91.61 L519.17,91.97 M519.17,91.97 L518.63,92.27 M518.63,92.27 L517.83,92.45 M517.83,92.45 L516.9,92.49 M516.9,92.49 L516.02,92.38 M516.02,92.38 L515.33,92.13 M515.33,92.13 L514.96,91.8 M514.96,91.8 L514.96,91.43 M514.96,91.43 L515.33,91.09 M515.33,91.09 L516.02,90.85 M516.02,90.85 L516.9,90.73 M516.9,90.73 L517.83,90.77 M517.83,90.77 L518.63,90.95 M518.63,90.95 L519.17,91.25 M519.17,91.25 L519.37,91.61" id="Shape"></path>
            <path d="M517.14,92.5 L517.14,96.83" id="Shape"></path>
            <path d="M515.84,98.13 L516.01,97.48 M516.01,97.48 L516.49,97.01 M516.49,97.01 L517.14,96.83 M517.14,96.83 L517.79,97.01 M517.79,97.01 L518.26,97.48 M518.26,97.48 L518.44,98.13 M518.44,98.13 L518.26,98.78 M518.26,98.78 L517.79,99.26 M517.79,99.26 L517.14,99.43 M517.14,99.43 L516.49,99.26 M516.49,99.26 L516.01,98.78 M516.01,98.78 L515.84,98.13" id="Shape"></path>
            <path d="M516.1,124.62 L516.29,123.9 M516.29,123.9 L516.82,123.38 M516.82,123.38 L517.53,123.19 M517.53,123.19 L518.25,123.38 M518.25,123.38 L518.77,123.9 M518.77,123.9 L518.96,124.62 M518.96,124.62 L518.77,125.33 M518.77,125.33 L518.25,125.85 M518.25,125.85 L517.53,126.05 M517.53,126.05 L516.82,125.85 M516.82,125.85 L516.29,125.33 M516.29,125.33 L516.1,124.62" id="Shape"></path>
            <path d="M518.01,125.96 L518.01,130.73" id="Shape"></path>
            <path d="M517.05,125.96 L517.05,130.73" id="Shape"></path>
            <path d="M512.76,130.73 L522.3,130.73" id="Shape"></path>
            <path d="M512.76,132.16 L522.3,132.16" id="Shape"></path>
            <path d="M520.39,132.16 L520.39,159.83" id="Shape"></path>
            <path d="M514.67,132.16 L514.67,159.83" id="Shape"></path>
            <path d="M512.76,159.83 L522.3,159.83" id="Shape"></path>
            <path d="M511.33,161.26 L523.73,161.26" id="Shape"></path>
            <path d="M511.33,162.69 L523.73,162.69" id="Shape"></path>
            <path d="M522.3,130.73 L522.3,132.16" id="Shape"></path>
            <path d="M512.76,130.73 L512.76,132.16" id="Shape"></path>
            <path d="M522.3,159.83 L522.3,161.26" id="Shape"></path>
            <path d="M512.76,159.83 L512.76,161.26" id="Shape"></path>
            <path d="M523.73,161.26 L523.73,162.69" id="Shape"></path>
            <path d="M511.33,161.26 L511.33,162.69" id="Shape"></path>
            <path d="M512.76,162.69 L512.76,177.46" id="Shape"></path>
            <path d="M517.53,162.69 L517.53,177.46" id="Shape"></path>
            <path d="M522.3,162.69 L522.3,177.46" id="Shape"></path>
            <path d="M512.76,177.46 L517.53,162.69" id="Shape"></path>
            <path d="M517.53,177.46 L512.76,162.69" id="Shape"></path>
            <path d="M517.53,177.46 L522.3,162.69" id="Shape"></path>
            <path d="M522.3,177.46 L517.53,162.69" id="Shape"></path>
            <path d="M654.77,86.47 L667.18,177.46" id="Shape"></path>
            <path d="M667.18,177.46 L643.74,129.34" id="Shape"></path>
            <path d="M692.7,22.46 L692.7,26.91" id="Shape"></path>
            <path d="M694.71,27.71 L694.54,28.03 M694.54,28.03 L694.04,28.3 M694.04,28.3 L693.32,28.47 M693.32,28.47 L692.49,28.5 M692.49,28.5 L691.7,28.4 M691.7,28.4 L691.07,28.18 M691.07,28.18 L690.73,27.88 M690.73,27.88 L690.73,27.54 M690.73,27.54 L691.07,27.24 M691.07,27.24 L691.7,27.02 M691.7,27.02 L692.49,26.92 M692.49,26.92 L693.32,26.95 M693.32,26.95 L694.04,27.12 M694.04,27.12 L694.54,27.39 M694.54,27.39 L694.71,27.71" id="Shape"></path>
            <path d="M694.71,29.31 L694.54,29.63 M694.54,29.63 L694.04,29.9 M694.04,29.9 L693.32,30.06 M693.32,30.06 L692.49,30.1 M692.49,30.1 L691.7,30 M691.7,30 L691.07,29.77 M691.07,29.77 L690.73,29.47 M690.73,29.47 L690.73,29.14 M690.73,29.14 L691.07,28.84 M691.07,28.84 L691.7,28.61 M691.7,28.61 L692.49,28.51 M692.49,28.51 L693.32,28.55 M693.32,28.55 L694.04,28.71 M694.04,28.71 L694.54,28.98 M694.54,28.98 L694.71,29.31" id="Shape"></path>
            <path d="M694.71,30.9 L694.54,31.22 M694.54,31.22 L694.04,31.49 M694.04,31.49 L693.32,31.66 M693.32,31.66 L692.49,31.69 M692.49,31.69 L691.7,31.59 M691.7,31.59 L691.07,31.37 M691.07,31.37 L690.73,31.07 M690.73,31.07 L690.73,30.73 M690.73,30.73 L691.07,30.43 M691.07,30.43 L691.7,30.21 M691.7,30.21 L692.49,30.11 M692.49,30.11 L693.32,30.14 M693.32,30.14 L694.04,30.31 M694.04,30.31 L694.54,30.58 M694.54,30.58 L694.71,30.9" id="Shape"></path>
            <path d="M694.71,32.49 L694.54,32.82 M694.54,32.82 L694.04,33.09 M694.04,33.09 L693.32,33.25 M693.32,33.25 L692.49,33.29 M692.49,33.29 L691.7,33.19 M691.7,33.19 L691.07,32.96 M691.07,32.96 L690.73,32.66 M690.73,32.66 L690.73,32.33 M690.73,32.33 L691.07,32.03 M691.07,32.03 L691.7,31.8 M691.7,31.8 L692.49,31.7 M692.49,31.7 L693.32,31.74 M693.32,31.74 L694.04,31.9 M694.04,31.9 L694.54,32.17 M694.54,32.17 L694.71,32.49" id="Shape"></path>
            <path d="M694.71,34.09 L694.54,34.41 M694.54,34.41 L694.04,34.68 M694.04,34.68 L693.32,34.85 M693.32,34.85 L692.49,34.88 M692.49,34.88 L691.7,34.78 M691.7,34.78 L691.07,34.56 M691.07,34.56 L690.73,34.26 M690.73,34.26 L690.73,33.92 M690.73,33.92 L691.07,33.62 M691.07,33.62 L691.7,33.4 M691.7,33.4 L692.49,33.3 M692.49,33.3 L693.32,33.33 M693.32,33.33 L694.04,33.5 M694.04,33.5 L694.54,33.77 M694.54,33.77 L694.71,34.09" id="Shape"></path>
            <path d="M692.7,34.89 L692.7,38.8" id="Shape"></path>
            <path d="M691.53,39.97 L691.71,39.33 M691.71,39.33 L692.21,38.9 M692.21,38.9 L692.87,38.81 M692.87,38.81 L693.47,39.08 M693.47,39.08 L693.82,39.64 M693.82,39.64 L693.82,40.3 M693.82,40.3 L693.47,40.85 M693.47,40.85 L692.87,41.13 M692.87,41.13 L692.21,41.04 M692.21,41.04 L691.71,40.6 M691.71,40.6 L691.53,39.97" id="Shape"></path>
            <path d="M643.74,22.46 L643.74,26.91" id="Shape"></path>
            <path d="M645.74,27.71 L645.57,28.03 M645.57,28.03 L645.08,28.3 M645.08,28.3 L644.36,28.47 M644.36,28.47 L643.53,28.5 M643.53,28.5 L642.73,28.4 M642.73,28.4 L642.11,28.18 M642.11,28.18 L641.77,27.88 M641.77,27.88 L641.77,27.54 M641.77,27.54 L642.11,27.24 M642.11,27.24 L642.73,27.02 M642.73,27.02 L643.53,26.92 M643.53,26.92 L644.36,26.95 M644.36,26.95 L645.08,27.12 M645.08,27.12 L645.57,27.39 M645.57,27.39 L645.74,27.71" id="Shape"></path>
            <path d="M645.74,29.31 L645.57,29.63 M645.57,29.63 L645.08,29.9 M645.08,29.9 L644.36,30.06 M644.36,30.06 L643.53,30.1 M643.53,30.1 L642.73,30 M642.73,30 L642.11,29.77 M642.11,29.77 L641.77,29.47 M641.77,29.47 L641.77,29.14 M641.77,29.14 L642.11,28.84 M642.11,28.84 L642.73,28.61 M642.73,28.61 L643.53,28.51 M643.53,28.51 L644.36,28.55 M644.36,28.55 L645.08,28.71 M645.08,28.71 L645.57,28.98 M645.57,28.98 L645.74,29.31" id="Shape"></path>
            <path d="M645.74,30.9 L645.57,31.22 M645.57,31.22 L645.08,31.49 M645.08,31.49 L644.36,31.66 M644.36,31.66 L643.53,31.69 M643.53,31.69 L642.73,31.59 M642.73,31.59 L642.11,31.37 M642.11,31.37 L641.77,31.07 M641.77,31.07 L641.77,30.73 M641.77,30.73 L642.11,30.43 M642.11,30.43 L642.73,30.21 M642.73,30.21 L643.53,30.11 M643.53,30.11 L644.36,30.14 M644.36,30.14 L645.08,30.31 M645.08,30.31 L645.57,30.58 M645.57,30.58 L645.74,30.9" id="Shape"></path>
            <path d="M645.74,32.49 L645.57,32.82 M645.57,32.82 L645.08,33.09 M645.08,33.09 L644.36,33.25 M644.36,33.25 L643.53,33.29 M643.53,33.29 L642.73,33.19 M642.73,33.19 L642.11,32.96 M642.11,32.96 L641.77,32.66 M641.77,32.66 L641.77,32.33 M641.77,32.33 L642.11,32.03 M642.11,32.03 L642.73,31.8 M642.73,31.8 L643.53,31.7 M643.53,31.7 L644.36,31.74 M644.36,31.74 L645.08,31.9 M645.08,31.9 L645.57,32.17 M645.57,32.17 L645.74,32.49" id="Shape"></path>
            <path d="M645.74,34.09 L645.57,34.41 M645.57,34.41 L645.08,34.68 M645.08,34.68 L644.36,34.85 M644.36,34.85 L643.53,34.88 M643.53,34.88 L642.73,34.78 M642.73,34.78 L642.11,34.56 M642.11,34.56 L641.77,34.26 M641.77,34.26 L641.77,33.92 M641.77,33.92 L642.11,33.62 M642.11,33.62 L642.73,33.4 M642.73,33.4 L643.53,33.3 M643.53,33.3 L644.36,33.33 M644.36,33.33 L645.08,33.5 M645.08,33.5 L645.57,33.77 M645.57,33.77 L645.74,34.09" id="Shape"></path>
            <path d="M643.74,34.89 L643.74,38.8" id="Shape"></path>
            <path d="M642.56,39.97 L642.75,39.33 M642.75,39.33 L643.25,38.9 M643.25,38.9 L643.9,38.81 M643.9,38.81 L644.5,39.08 M644.5,39.08 L644.86,39.64 M644.86,39.64 L644.86,40.3 M644.86,40.3 L644.5,40.85 M644.5,40.85 L643.9,41.13 M643.9,41.13 L643.25,41.04 M643.25,41.04 L642.75,40.6 M642.75,40.6 L642.56,39.97" id="Shape"></path>
            <path d="M540.43,99.43 L547.46,101.19 M547.46,101.19 L554.58,102.58 M554.58,102.58 L561.77,103.57 M561.77,103.57 L568.99,104.19 M568.99,104.19 L576.24,104.41 M576.24,104.41 L583.49,104.24 M583.49,104.24 L590.72,103.69 M590.72,103.69 L597.91,102.75 M597.91,102.75 L605.04,101.43 M605.04,101.43 L612.09,99.72 M612.09,99.72 L619.04,97.64 M619.04,97.64 L625.87,95.2 M625.87,95.2 L632.55,92.38 M632.55,92.38 L639.08,89.22 M639.08,89.22 L645.42,85.71 M645.42,85.71 L651.57,81.86 M651.57,81.86 L657.51,77.7 M657.51,77.7 L663.21,73.21 M663.21,73.21 L668.66,68.43 M668.66,68.43 L673.85,63.37 M673.85,63.37 L678.76,58.03 M678.76,58.03 L683.38,52.44 M683.38,52.44 L687.69,46.61 M687.69,46.61 L691.68,40.56" id="Shape"></path>
            <path d="M540.43,74.98 L540.43,83.65" id="Shape"></path>
            <path d="M542.66,84.54 L542.46,84.9 M542.46,84.9 L541.92,85.19 M541.92,85.19 L541.12,85.38 M541.12,85.38 L540.19,85.42 M540.19,85.42 L539.31,85.3 M539.31,85.3 L538.62,85.06 M538.62,85.06 L538.25,84.72 M538.25,84.72 L538.25,84.35 M538.25,84.35 L538.62,84.02 M538.62,84.02 L539.31,83.77 M539.31,83.77 L540.19,83.66 M540.19,83.66 L541.12,83.69 M541.12,83.69 L541.92,83.88 M541.92,83.88 L542.46,84.18 M542.46,84.18 L542.66,84.54" id="Shape"></path>
            <path d="M542.66,86.3 L542.46,86.66 M542.46,86.66 L541.92,86.96 M541.92,86.96 L541.12,87.15 M541.12,87.15 L540.19,87.18 M540.19,87.18 L539.31,87.07 M539.31,87.07 L538.62,86.82 M538.62,86.82 L538.25,86.49 M538.25,86.49 L538.25,86.12 M538.25,86.12 L538.62,85.79 M538.62,85.79 L539.31,85.54 M539.31,85.54 L540.19,85.43 M540.19,85.43 L541.12,85.46 M541.12,85.46 L541.92,85.65 M541.92,85.65 L542.46,85.95 M542.46,85.95 L542.66,86.3" id="Shape"></path>
            <path d="M542.66,88.07 L542.46,88.43 M542.46,88.43 L541.92,88.73 M541.92,88.73 L541.12,88.92 M541.12,88.92 L540.19,88.95 M540.19,88.95 L539.31,88.84 M539.31,88.84 L538.62,88.59 M538.62,88.59 L538.25,88.26 M538.25,88.26 L538.25,87.89 M538.25,87.89 L538.62,87.55 M538.62,87.55 L539.31,87.31 M539.31,87.31 L540.19,87.19 M540.19,87.19 L541.12,87.23 M541.12,87.23 L541.92,87.42 M541.92,87.42 L542.46,87.71 M542.46,87.71 L542.66,88.07" id="Shape"></path>
            <path d="M542.66,89.84 L542.46,90.2 M542.46,90.2 L541.92,90.5 M541.92,90.5 L541.12,90.68 M541.12,90.68 L540.19,90.72 M540.19,90.72 L539.31,90.61 M539.31,90.61 L538.62,90.36 M538.62,90.36 L538.25,90.03 M538.25,90.03 L538.25,89.66 M538.25,89.66 L538.62,89.32 M538.62,89.32 L539.31,89.08 M539.31,89.08 L540.19,88.96 M540.19,88.96 L541.12,89 M541.12,89 L541.92,89.19 M541.92,89.19 L542.46,89.48 M542.46,89.48 L542.66,89.84" id="Shape"></path>
            <path d="M542.66,91.61 L542.46,91.97 M542.46,91.97 L541.92,92.27 M541.92,92.27 L541.12,92.45 M541.12,92.45 L540.19,92.49 M540.19,92.49 L539.31,92.38 M539.31,92.38 L538.62,92.13 M538.62,92.13 L538.25,91.8 M538.25,91.8 L538.25,91.43 M538.25,91.43 L538.62,91.09 M538.62,91.09 L539.31,90.85 M539.31,90.85 L540.19,90.73 M540.19,90.73 L541.12,90.77 M541.12,90.77 L541.92,90.95 M541.92,90.95 L542.46,91.25 M542.46,91.25 L542.66,91.61" id="Shape"></path>
            <path d="M540.43,92.5 L540.43,96.83" id="Shape"></path>
            <path d="M539.13,98.13 L539.3,97.48 M539.3,97.48 L539.78,97.01 M539.78,97.01 L540.43,96.83 M540.43,96.83 L541.08,97.01 M541.08,97.01 L541.55,97.48 M541.55,97.48 L541.73,98.13 M541.73,98.13 L541.55,98.78 M541.55,98.78 L541.08,99.26 M541.08,99.26 L540.43,99.43 M540.43,99.43 L539.78,99.26 M539.78,99.26 L539.3,98.78 M539.3,98.78 L539.13,98.13" id="Shape"></path>
            <path d="M539.39,124.62 L539.58,123.9 M539.58,123.9 L540.11,123.38 M540.11,123.38 L540.82,123.19 M540.82,123.19 L541.54,123.38 M541.54,123.38 L542.06,123.9 M542.06,123.9 L542.25,124.62 M542.25,124.62 L542.06,125.33 M542.06,125.33 L541.54,125.85 M541.54,125.85 L540.82,126.05 M540.82,126.05 L540.11,125.85 M540.11,125.85 L539.58,125.33 M539.58,125.33 L539.39,124.62" id="Shape"></path>
            <path d="M541.3,125.96 L541.3,130.73" id="Shape"></path>
            <path d="M540.34,125.96 L540.34,130.73" id="Shape"></path>
            <path d="M536.05,130.73 L545.59,130.73" id="Shape"></path>
            <path d="M536.05,132.16 L545.59,132.16" id="Shape"></path>
            <path d="M543.68,132.16 L543.68,159.83" id="Shape"></path>
            <path d="M537.96,132.16 L537.96,159.83" id="Shape"></path>
            <path d="M536.05,159.83 L545.59,159.83" id="Shape"></path>
            <path d="M534.62,161.26 L547.02,161.26" id="Shape"></path>
            <path d="M534.62,162.69 L547.02,162.69" id="Shape"></path>
            <path d="M545.59,130.73 L545.59,132.16" id="Shape"></path>
            <path d="M536.05,130.73 L536.05,132.16" id="Shape"></path>
            <path d="M545.59,159.83 L545.59,161.26" id="Shape"></path>
            <path d="M536.05,159.83 L536.05,161.26" id="Shape"></path>
            <path d="M547.02,161.26 L547.02,162.69" id="Shape"></path>
            <path d="M534.62,161.26 L534.62,162.69" id="Shape"></path>
            <path d="M536.05,162.69 L536.05,177.46" id="Shape"></path>
            <path d="M540.82,162.69 L540.82,177.46" id="Shape"></path>
            <path d="M545.59,162.69 L545.59,177.46" id="Shape"></path>
            <path d="M536.05,177.46 L540.82,162.69" id="Shape"></path>
            <path d="M540.82,177.46 L536.05,162.69" id="Shape"></path>
            <path d="M540.82,177.46 L545.59,162.69" id="Shape"></path>
            <path d="M545.59,177.46 L540.82,162.69" id="Shape"></path>
            <path d="M568.44,177.46 L707.72,177.46" id="Shape"></path>
            <path d="M693.7,40.58 L698.22,43.17 M698.22,43.17 L702.9,45.47 M702.9,45.47 L707.72,47.45" id="Shape"></path>
            <path d="M54.1,148.8 L95.07,129.69" id="Shape"></path>
            <path d="M53.3,147.08 L94.27,127.98" id="Shape"></path>
            <path d="M53.3,147.08 L54.1,148.8" id="Shape"></path>
            <path d="M94.27,127.98 L95.07,129.69" id="Shape"></path>
            <path d="M2.43,148.8 L43.39,129.69" id="Shape"></path>
            <path d="M1.63,147.08 L42.59,127.98" id="Shape"></path>
            <path d="M1.63,147.08 L2.43,148.8" id="Shape"></path>
            <path d="M42.59,127.98 L43.39,129.69" id="Shape"></path>
            <path d="M16.99,65.51 L16.99,90.31" id="Shape"></path>
            <path d="M29.7,62.69 L40.19,85.17" id="Shape"></path>
            <path d="M40.04,54.76 L59.04,70.71" id="Shape"></path>
            <path d="M0.67,35.42 L0.86,32.93 M0.86,32.93 L1.43,30.5 M1.43,30.5 L2.37,28.18 M2.37,28.18 L3.64,26.04 M3.64,26.04 L5.23,24.11 M5.23,24.11 L7.1,22.45 M7.1,22.45 L9.19,21.09 M9.19,21.09 L11.47,20.07 M11.47,20.07 L13.88,19.41 M13.88,19.41 L16.36,19.12 M16.36,19.12 L18.86,19.21 M18.86,19.21 L21.31,19.69 M21.31,19.69 L23.66,20.53 M23.66,20.53 L25.86,21.73 M25.86,21.73 L27.85,23.24 M27.85,23.24 L29.58,25.04 M29.58,25.04 L31.01,27.09 M31.01,27.09 L32.12,29.32 M32.12,29.32 L32.88,31.71 M32.88,31.71 L33.26,34.17 M33.26,34.17 L33.26,36.67 M33.26,36.67 L32.88,39.14 M32.88,39.14 L32.12,41.52 M32.12,41.52 L31.01,43.76 M31.01,43.76 L29.58,45.81 M29.58,45.81 L27.85,47.6 M27.85,47.6 L25.86,49.12 M25.86,49.12 L23.66,50.31 M23.66,50.31 L21.31,51.16 M21.31,51.16 L18.86,51.63 M18.86,51.63 L16.36,51.73 M16.36,51.73 L13.88,51.44 M13.88,51.44 L11.47,50.78 M11.47,50.78 L9.19,49.76 M9.19,49.76 L7.1,48.4 M7.1,48.4 L5.23,46.74 M5.23,46.74 L3.64,44.81 M3.64,44.81 L2.37,42.66 M2.37,42.66 L1.43,40.35 M1.43,40.35 L0.86,37.91 M0.86,37.91 L0.67,35.42" id="Shape"></path>
            <path d="M470.56,65.66 L462.57,60.33" id="Shape"></path>
            <path d="M462.57,60.33 L467.64,53.98" id="Shape"></path>
            <path d="M461.24,65.66 L465.9,47.03" id="Shape"></path>
            <path d="M465.9,47.03 L470.56,65.66" id="Shape"></path>
            <path d="M465.9,47.03 L465.9,38.15" id="Shape"></path>
            <path d="M563.72,65.66 L571.7,60.33" id="Shape"></path>
            <path d="M571.7,60.33 L566.64,53.98" id="Shape"></path>
            <path d="M573.03,65.66 L568.38,47.03" id="Shape"></path>
            <path d="M568.38,47.03 L563.72,65.66" id="Shape"></path>
            <path d="M568.38,47.03 L568.38,38.15" id="Shape"></path>
            <path d="M492.56,156.5 L495.92,156.5" id="Shape"></path>
            <path d="M495.92,156.5 L495.92,158.64" id="Shape"></path>
            <path d="M492.56,158.64 L495.92,158.64" id="Shape"></path>
            <path d="M492.56,156.5 L492.56,158.64" id="Shape"></path>
            <path d="M492.56,153.16 L495.92,153.16" id="Shape"></path>
            <path d="M495.92,153.16 L495.92,155.31" id="Shape"></path>
            <path d="M492.56,155.31 L495.92,155.31" id="Shape"></path>
            <path d="M492.56,153.16 L492.56,155.31" id="Shape"></path>
            <path d="M492.56,149.83 L495.92,149.83" id="Shape"></path>
            <path d="M495.92,149.83 L495.92,151.98" id="Shape"></path>
            <path d="M492.56,151.98 L495.92,151.98" id="Shape"></path>
            <path d="M492.56,149.83 L492.56,151.98" id="Shape"></path>
            <path d="M492.56,146.5 L495.92,146.5" id="Shape"></path>
            <path d="M495.92,146.5 L495.92,148.65" id="Shape"></path>
            <path d="M492.56,148.65 L495.92,148.65" id="Shape"></path>
            <path d="M492.56,146.5 L492.56,148.65" id="Shape"></path>
            <path d="M492.56,143.17 L495.92,143.17" id="Shape"></path>
            <path d="M495.92,143.17 L495.92,145.32" id="Shape"></path>
            <path d="M492.56,145.32 L495.92,145.32" id="Shape"></path>
            <path d="M492.56,143.17 L492.56,145.32" id="Shape"></path>
            <path d="M492.56,139.84 L495.92,139.84" id="Shape"></path>
            <path d="M495.92,139.84 L495.92,141.99" id="Shape"></path>
            <path d="M492.56,141.99 L495.92,141.99" id="Shape"></path>
            <path d="M492.56,139.84 L492.56,141.99" id="Shape"></path>
            <path d="M492.56,136.51 L495.92,136.51" id="Shape"></path>
            <path d="M495.92,136.51 L495.92,138.66" id="Shape"></path>
            <path d="M492.56,138.66 L495.92,138.66" id="Shape"></path>
            <path d="M492.56,136.51 L492.56,138.66" id="Shape"></path>
            <path d="M492.56,133.18 L495.92,133.18" id="Shape"></path>
            <path d="M495.92,133.18 L495.92,135.33" id="Shape"></path>
            <path d="M492.56,135.33 L495.92,135.33" id="Shape"></path>
            <path d="M492.56,133.18 L492.56,135.33" id="Shape"></path>
            <path d="M515.85,156.5 L519.21,156.5" id="Shape"></path>
            <path d="M519.21,156.5 L519.21,158.64" id="Shape"></path>
            <path d="M515.85,158.64 L519.21,158.64" id="Shape"></path>
            <path d="M515.85,156.5 L515.85,158.64" id="Shape"></path>
            <path d="M515.85,153.16 L519.21,153.16" id="Shape"></path>
            <path d="M519.21,153.16 L519.21,155.31" id="Shape"></path>
            <path d="M515.85,155.31 L519.21,155.31" id="Shape"></path>
            <path d="M515.85,153.16 L515.85,155.31" id="Shape"></path>
            <path d="M515.85,149.83 L519.21,149.83" id="Shape"></path>
            <path d="M519.21,149.83 L519.21,151.98" id="Shape"></path>
            <path d="M515.85,151.98 L519.21,151.98" id="Shape"></path>
            <path d="M515.85,149.83 L515.85,151.98" id="Shape"></path>
            <path d="M515.85,146.5 L519.21,146.5" id="Shape"></path>
            <path d="M519.21,146.5 L519.21,148.65" id="Shape"></path>
            <path d="M515.85,148.65 L519.21,148.65" id="Shape"></path>
            <path d="M515.85,146.5 L515.85,148.65" id="Shape"></path>
            <path d="M515.85,143.17 L519.21,143.17" id="Shape"></path>
            <path d="M519.21,143.17 L519.21,145.32" id="Shape"></path>
            <path d="M515.85,145.32 L519.21,145.32" id="Shape"></path>
            <path d="M515.85,143.17 L515.85,145.32" id="Shape"></path>
            <path d="M515.85,139.84 L519.21,139.84" id="Shape"></path>
            <path d="M519.21,139.84 L519.21,141.99" id="Shape"></path>
            <path d="M515.85,141.99 L519.21,141.99" id="Shape"></path>
            <path d="M515.85,139.84 L515.85,141.99" id="Shape"></path>
            <path d="M515.85,136.51 L519.21,136.51" id="Shape"></path>
            <path d="M519.21,136.51 L519.21,138.66" id="Shape"></path>
            <path d="M515.85,138.66 L519.21,138.66" id="Shape"></path>
            <path d="M515.85,136.51 L515.85,138.66" id="Shape"></path>
            <path d="M515.85,133.18 L519.21,133.18" id="Shape"></path>
            <path d="M519.21,133.18 L519.21,135.33" id="Shape"></path>
            <path d="M515.85,135.33 L519.21,135.33" id="Shape"></path>
            <path d="M515.85,133.18 L515.85,135.33" id="Shape"></path>
            <path d="M539.14,156.5 L542.5,156.5" id="Shape"></path>
            <path d="M542.5,156.5 L542.5,158.64" id="Shape"></path>
            <path d="M539.14,158.64 L542.5,158.64" id="Shape"></path>
            <path d="M539.14,156.5 L539.14,158.64" id="Shape"></path>
            <path d="M539.14,153.16 L542.5,153.16" id="Shape"></path>
            <path d="M542.5,153.16 L542.5,155.31" id="Shape"></path>
            <path d="M539.14,155.31 L542.5,155.31" id="Shape"></path>
            <path d="M539.14,153.16 L539.14,155.31" id="Shape"></path>
            <path d="M539.14,149.83 L542.5,149.83" id="Shape"></path>
            <path d="M542.5,149.83 L542.5,151.98" id="Shape"></path>
            <path d="M539.14,151.98 L542.5,151.98" id="Shape"></path>
            <path d="M539.14,149.83 L539.14,151.98" id="Shape"></path>
            <path d="M539.14,146.5 L542.5,146.5" id="Shape"></path>
            <path d="M542.5,146.5 L542.5,148.65" id="Shape"></path>
            <path d="M539.14,148.65 L542.5,148.65" id="Shape"></path>
            <path d="M539.14,146.5 L539.14,148.65" id="Shape"></path>
            <path d="M539.14,143.17 L542.5,143.17" id="Shape"></path>
            <path d="M542.5,143.17 L542.5,145.32" id="Shape"></path>
            <path d="M539.14,145.32 L542.5,145.32" id="Shape"></path>
            <path d="M539.14,143.17 L539.14,145.32" id="Shape"></path>
            <path d="M539.14,139.84 L542.5,139.84" id="Shape"></path>
            <path d="M542.5,139.84 L542.5,141.99" id="Shape"></path>
            <path d="M539.14,141.99 L542.5,141.99" id="Shape"></path>
            <path d="M539.14,139.84 L539.14,141.99" id="Shape"></path>
            <path d="M539.14,136.51 L542.5,136.51" id="Shape"></path>
            <path d="M542.5,136.51 L542.5,138.66" id="Shape"></path>
            <path d="M539.14,138.66 L542.5,138.66" id="Shape"></path>
            <path d="M539.14,136.51 L539.14,138.66" id="Shape"></path>
            <path d="M539.14,133.18 L542.5,133.18" id="Shape"></path>
            <path d="M542.5,133.18 L542.5,135.33" id="Shape"></path>
            <path d="M539.14,135.33 L542.5,135.33" id="Shape"></path>
            <path d="M539.14,133.18 L539.14,135.33" id="Shape"></path>
            <path d="M399.65,141.7 L391.83,141.7" id="Shape"></path>
            <path d="M391.83,143.26 L399.65,143.26" id="Shape"></path>
            <path d="M399.65,143.26 L399.65,141.7" id="Shape"></path>
            <path d="M443.17,177.46 L479.31,177.46" id="Shape"></path>
            <path d="M443.17,177.46 L443.17,106.22" id="Shape"></path>
            <path d="M443.17,106.22 L479.31,106.22" id="Shape"></path>
            <path d="M449.86,170.72 L472.62,170.72" id="Shape"></path>
            <path d="M449.86,170.72 L449.86,119.94" id="Shape"></path>
            <path d="M449.86,119.94 L472.62,119.94" id="Shape"></path>
            <path d="M472.62,170.72 L472.62,119.94" id="Shape"></path>
            <path d="M465.54,133.15 L456.94,133.15" id="Shape"></path>
            <path d="M456.94,133.15 L456.94,134.87" id="Shape"></path>
            <path d="M456.94,134.87 L465.54,134.87" id="Shape"></path>
            <path d="M465.54,134.87 L465.54,133.15" id="Shape"></path>
            <path d="M479.31,177.46 L479.31,106.22" id="Shape"></path>
            <path d="M517.14,99.43 L516.53,104.17 M516.53,104.17 L516.26,108.94 M516.26,108.94 L516.32,113.71 M516.32,113.71 L516.72,118.47 M516.72,118.47 L517.46,123.19" id="Shape"></path>
            <path d="M660.61,129.34 L626.86,129.34" id="Shape"></path>
            <path d="M657.66,157.92 L662.56,143.63" id="Shape"></path>
            <path d="M650.7,143.63 L660.61,129.34" id="Shape"></path>
            <path d="M662.56,143.63 L654.55,138.07" id="Shape"></path>
            <path d="M664.51,157.92 L659.32,153.06" id="Shape"></path>
            <path d="M632.7,86.47 L620.3,177.46" id="Shape"></path>
            <path d="M620.3,177.46 L643.74,129.34" id="Shape"></path>
            <path d="M629.81,157.92 L624.91,143.63" id="Shape"></path>
            <path d="M636.77,143.63 L626.86,129.34" id="Shape"></path>
            <path d="M624.91,143.63 L632.92,138.07" id="Shape"></path>
            <path d="M622.96,157.92 L628.15,153.06" id="Shape"></path>
            <path d="M624.91,143.63 L636.77,143.63" id="Shape"></path>
            <path d="M622.96,157.92 L629.81,157.92" id="Shape"></path>
            <path d="M662.56,143.63 L650.7,143.63" id="Shape"></path>
            <path d="M664.51,157.92 L657.66,157.92" id="Shape"></path>
            <path d="M658.29,112.3 L629.18,112.3" id="Shape"></path>
            <path d="M660.61,129.34 L630.94,99.39" id="Shape"></path>
            <path d="M638.29,106.81 L629.93,106.81" id="Shape"></path>
            <path d="M638.29,106.81 L629.18,112.3" id="Shape"></path>
            <path d="M638.29,117.8 L628.43,117.8" id="Shape"></path>
            <path d="M638.29,117.8 L629.18,112.3" id="Shape"></path>
            <path d="M626.86,129.34 L656.53,99.39" id="Shape"></path>
            <path d="M656.53,99.39 L643.74,86.47" id="Shape"></path>
            <path d="M630.94,99.39 L643.74,86.47" id="Shape"></path>
            <path d="M654.77,86.47 L632.7,86.47" id="Shape"></path>
            <path d="M649.18,106.81 L657.54,106.81" id="Shape"></path>
            <path d="M649.18,106.81 L658.29,112.3" id="Shape"></path>
            <path d="M649.18,117.8 L659.04,117.8" id="Shape"></path>
            <path d="M649.18,117.8 L658.29,112.3" id="Shape"></path>
            <path d="M632.13,90.7 L655.34,90.7" id="Shape"></path>
            <path d="M654.77,86.47 L647.93,90.7" id="Shape"></path>
            <path d="M632.7,86.47 L639.54,90.7" id="Shape"></path>
            <path d="M654.77,86.47 L676.09,0.83" id="Shape"></path>
            <path d="M657.22,76.61 L630.25,76.61" id="Shape"></path>
            <path d="M654.77,86.47 L643.74,76.61" id="Shape"></path>
            <path d="M632.7,86.47 L611.38,0.83" id="Shape"></path>
            <path d="M632.7,86.47 L643.74,76.61" id="Shape"></path>
            <path d="M664.08,49.06 L643.74,76.61" id="Shape"></path>
            <path d="M676.09,0.83 L660.11,22.46" id="Shape"></path>
            <path d="M664.08,49.06 L660.11,22.46" id="Shape"></path>
            <path d="M616.77,22.46 L670.7,22.46" id="Shape"></path>
            <path d="M614.74,14.34 L672.73,14.34" id="Shape"></path>
            <path d="M692.7,22.46 L672.73,14.34" id="Shape"></path>
            <path d="M672.73,14.34 L669.95,9.14" id="Shape"></path>
            <path d="M669.95,9.14 L674.39,7.66" id="Shape"></path>
            <path d="M670.7,22.46 L677.16,16.14" id="Shape"></path>
            <path d="M677.16,16.14 L680.45,22.46" id="Shape"></path>
            <path d="M680.45,22.46 L683.37,18.67" id="Shape"></path>
            <path d="M683.37,18.67 L686.54,22.46" id="Shape"></path>
            <path d="M670.7,22.46 L666.12,14.34" id="Shape"></path>
            <path d="M659.99,22.46 L656.4,14.34" id="Shape"></path>
            <path d="M652.81,22.46 L656.4,14.34" id="Shape"></path>
            <path d="M652.81,22.46 L649.21,14.34" id="Shape"></path>
            <path d="M645.62,22.46 L649.21,14.34" id="Shape"></path>
            <path d="M645.62,22.46 L642.03,14.34" id="Shape"></path>
            <path d="M638.44,22.46 L642.03,14.34" id="Shape"></path>
            <path d="M638.44,22.46 L634.84,14.34" id="Shape"></path>
            <path d="M631.25,22.46 L634.84,14.34" id="Shape"></path>
            <path d="M631.25,22.46 L627.66,14.34" id="Shape"></path>
            <path d="M624.07,22.46 L627.66,14.34" id="Shape"></path>
            <path d="M624.07,22.46 L620.47,14.34" id="Shape"></path>
            <path d="M616.88,22.46 L620.47,14.34" id="Shape"></path>
            <path d="M660.11,22.46 L669.15,28.69" id="Shape"></path>
            <path d="M669.15,28.69 L661.62,32.56" id="Shape"></path>
            <path d="M661.62,32.56 L667.09,36.97" id="Shape"></path>
            <path d="M667.09,36.97 L662.89,41.08" id="Shape"></path>
            <path d="M662.89,41.08 L665.43,43.65" id="Shape"></path>
            <path d="M643.74,76.61 L659.09,69.12" id="Shape"></path>
            <path d="M659.09,69.12 L653.15,63.87" id="Shape"></path>
            <path d="M653.15,63.87 L661.7,58.63" id="Shape"></path>
            <path d="M661.7,58.63 L659.17,55.71" id="Shape"></path>
            <path d="M659.17,55.71 L662.43,55.71" id="Shape"></path>
            <path d="M623.39,49.06 L643.74,76.61" id="Shape"></path>
            <path d="M611.38,0.83 L627.36,22.46" id="Shape"></path>
            <path d="M623.39,49.06 L627.36,22.46" id="Shape"></path>
            <path d="M614.74,14.34 L617.52,9.14" id="Shape"></path>
            <path d="M617.52,9.14 L613.08,7.66" id="Shape"></path>
            <path d="M616.77,22.46 L621.36,14.34" id="Shape"></path>
            <path d="M627.36,22.46 L618.32,28.69" id="Shape"></path>
            <path d="M618.32,28.69 L625.85,32.56" id="Shape"></path>
            <path d="M625.85,32.56 L620.38,36.97" id="Shape"></path>
            <path d="M620.38,36.97 L624.58,41.08" id="Shape"></path>
            <path d="M624.58,41.08 L622.04,43.65" id="Shape"></path>
            <path d="M643.74,76.61 L628.38,69.12" id="Shape"></path>
            <path d="M628.38,69.12 L634.32,63.87" id="Shape"></path>
            <path d="M634.32,63.87 L625.77,58.63" id="Shape"></path>
            <path d="M625.77,58.63 L628.3,55.71" id="Shape"></path>
            <path d="M628.3,55.71 L625.05,55.71" id="Shape"></path>
            <path d="M670.7,22.46 L692.7,22.46" id="Shape"></path>
            <path d="M594.77,22.46 L594.77,26.91" id="Shape"></path>
            <path d="M592.76,27.71 L592.94,28.03 M592.94,28.03 L593.43,28.3 M593.43,28.3 L594.15,28.47 M594.15,28.47 L594.98,28.5 M594.98,28.5 L595.78,28.4 M595.78,28.4 L596.4,28.18 M596.4,28.18 L596.74,27.88 M596.74,27.88 L596.74,27.54 M596.74,27.54 L596.4,27.24 M596.4,27.24 L595.78,27.02 M595.78,27.02 L594.98,26.92 M594.98,26.92 L594.15,26.95 M594.15,26.95 L593.43,27.12 M593.43,27.12 L592.94,27.39 M592.94,27.39 L592.76,27.71" id="Shape"></path>
            <path d="M592.76,29.31 L592.94,29.63 M592.94,29.63 L593.43,29.9 M593.43,29.9 L594.15,30.06 M594.15,30.06 L594.98,30.1 M594.98,30.1 L595.78,30 M595.78,30 L596.4,29.77 M596.4,29.77 L596.74,29.47 M596.74,29.47 L596.74,29.14 M596.74,29.14 L596.4,28.84 M596.4,28.84 L595.78,28.61 M595.78,28.61 L594.98,28.51 M594.98,28.51 L594.15,28.55 M594.15,28.55 L593.43,28.71 M593.43,28.71 L592.94,28.98 M592.94,28.98 L592.76,29.31" id="Shape"></path>
            <path d="M592.76,30.9 L592.94,31.22 M592.94,31.22 L593.43,31.49 M593.43,31.49 L594.15,31.66 M594.15,31.66 L594.98,31.69 M594.98,31.69 L595.78,31.59 M595.78,31.59 L596.4,31.37 M596.4,31.37 L596.74,31.07 M596.74,31.07 L596.74,30.73 M596.74,30.73 L596.4,30.43 M596.4,30.43 L595.78,30.21 M595.78,30.21 L594.98,30.11 M594.98,30.11 L594.15,30.14 M594.15,30.14 L593.43,30.31 M593.43,30.31 L592.94,30.58 M592.94,30.58 L592.76,30.9" id="Shape"></path>
            <path d="M592.76,32.49 L592.94,32.82 M592.94,32.82 L593.43,33.09 M593.43,33.09 L594.15,33.25 M594.15,33.25 L594.98,33.29 M594.98,33.29 L595.78,33.19 M595.78,33.19 L596.4,32.96 M596.4,32.96 L596.74,32.66 M596.74,32.66 L596.74,32.33 M596.74,32.33 L596.4,32.03 M596.4,32.03 L595.78,31.8 M595.78,31.8 L594.98,31.7 M594.98,31.7 L594.15,31.74 M594.15,31.74 L593.43,31.9 M593.43,31.9 L592.94,32.17 M592.94,32.17 L592.76,32.49" id="Shape"></path>
            <path d="M592.76,34.09 L592.94,34.41 M592.94,34.41 L593.43,34.68 M593.43,34.68 L594.15,34.85 M594.15,34.85 L594.98,34.88 M594.98,34.88 L595.78,34.78 M595.78,34.78 L596.4,34.56 M596.4,34.56 L596.74,34.26 M596.74,34.26 L596.74,33.92 M596.74,33.92 L596.4,33.62 M596.4,33.62 L595.78,33.4 M595.78,33.4 L594.98,33.3 M594.98,33.3 L594.15,33.33 M594.15,33.33 L593.43,33.5 M593.43,33.5 L592.94,33.77 M592.94,33.77 L592.76,34.09" id="Shape"></path>
            <path d="M594.77,34.89 L594.77,38.8" id="Shape"></path>
            <path d="M593.6,39.97 L593.78,39.33 M593.78,39.33 L594.28,38.9 M594.28,38.9 L594.94,38.81 M594.94,38.81 L595.54,39.08 M595.54,39.08 L595.9,39.64 M595.9,39.64 L595.9,40.3 M595.9,40.3 L595.54,40.85 M595.54,40.85 L594.94,41.13 M594.94,41.13 L594.28,41.04 M594.28,41.04 L593.78,40.6 M593.78,40.6 L593.6,39.97" id="Shape"></path>
            <path d="M594.77,22.46 L614.74,14.34" id="Shape"></path>
            <path d="M616.77,22.46 L610.31,16.14" id="Shape"></path>
            <path d="M610.31,16.14 L607.02,22.46" id="Shape"></path>
            <path d="M607.02,22.46 L604.1,18.67" id="Shape"></path>
            <path d="M604.1,18.67 L600.93,22.46" id="Shape"></path>
            <path d="M616.77,22.46 L594.77,22.46" id="Shape"></path>
            <path d="M644.74,40.58 L650.47,43.85 M650.47,43.85 L656.38,46.77 M656.38,46.77 L662.46,49.33 M662.46,49.33 L668.68,51.52 M668.68,51.52 L675.02,53.33 M675.02,53.33 L681.46,54.76 M681.46,54.76 L687.97,55.8 M687.97,55.8 L694.53,56.45 M694.53,56.45 L701.12,56.7 M701.12,56.7 L707.72,56.55" id="Shape"></path>
            <path d="M595.77,40.58 L603.1,44.46 M603.1,44.46 L610.59,48.01 M610.59,48.01 L618.23,51.23 M618.23,51.23 L626,54.1 M626,54.1 L633.89,56.63 M633.89,56.63 L641.89,58.81 M641.89,58.81 L649.98,60.63 M649.98,60.63 L658.14,62.09 M658.14,62.09 L666.35,63.18 M666.35,63.18 L674.61,63.92 M674.61,63.92 L682.89,64.28 M682.89,64.28 L691.18,64.28 M691.18,64.28 L699.46,63.91 M699.46,63.91 L707.72,63.18" id="Shape"></path>
            <path d="M493.85,99.43 L493.24,104.17 M493.24,104.17 L492.97,108.94 M492.97,108.94 L493.03,113.71 M493.03,113.71 L493.43,118.47 M493.43,118.47 L494.17,123.19" id="Shape"></path>
            <path d="M540.43,99.43 L539.82,104.17 M539.82,104.17 L539.55,108.94 M539.55,108.94 L539.61,113.71 M539.61,113.71 L540.01,118.47 M540.01,118.47 L540.75,123.19" id="Shape"></path>
        </g>
    </g>
</svg>