<?xml version="1.0" encoding="UTF-8"?>
<svg width="595px" height="159px" viewBox="0 0 595 159" version="1.1" xmlns="http://www.w3.org/2000/svg" xmlns:xlink="http://www.w3.org/1999/xlink">
    <!-- Generator: Sketch 57.1 (83088) - https://sketch.com -->
    <title>Solar</title>
    <desc>Created with Sketch.</desc>
    <g id="Page-1" stroke="none" stroke-width="1" fill="none" fill-rule="evenodd">
        <g id="Solar" stroke="#FFFFFF" stroke-width="0.5">
            <path d="M63.18,158.18 L147.64,158.18" id="Shape"></path>
            <path d="M147.64,158.18 L147.64,148.25" id="Shape"></path>
            <path d="M142.09,148.25 L163.13,148.25" id="Shape"></path>
            <path d="M232.1,158.18 L157.58,158.18" id="Shape"></path>
            <path d="M157.58,158.18 L157.58,148.25" id="Shape"></path>
            <path d="M163.13,148.25 L163.13,118.24" id="Shape"></path>
            <path d="M142.09,118.24 L163.13,118.24" id="Shape"></path>
            <path d="M149.5,132.75 L149.12,131.86 M149.12,131.86 L148.43,131.17 M148.43,131.17 L147.54,130.81 M147.54,130.81 L146.57,130.81 M146.57,130.81 L145.68,131.18 M145.68,131.18 L145,131.87 M145,131.87 L144.63,132.76 M144.63,132.76 L144.63,133.73 M144.63,133.73 L145,134.62 M145,134.62 L145.68,135.31 M145.68,135.31 L146.57,135.68 M146.57,135.68 L147.54,135.68 M147.54,135.68 L148.43,135.32 M148.43,135.32 L149.12,134.63 M149.12,134.63 L149.5,133.74" id="Shape"></path>
            <path d="M147.06,132.75 L152.03,132.75" id="Shape"></path>
            <path d="M152.03,132.75 L152.03,133.74" id="Shape"></path>
            <path d="M152.03,133.74 L147.06,133.74" id="Shape"></path>
            <path d="M147.06,133.74 L147.06,132.75" id="Shape"></path>
            <path d="M232.1,158.18 L232.1,148.25" id="Shape"></path>
            <path d="M316.56,158.18 L242.04,158.18" id="Shape"></path>
            <path d="M242.04,158.18 L242.04,148.25" id="Shape"></path>
            <path d="M326.5,158.18 L387.59,158.18" id="Shape"></path>
            <path d="M387.59,158.18 L387.59,148.25" id="Shape"></path>
            <path d="M326.5,158.18 L326.5,148.25" id="Shape"></path>
            <path d="M316.56,158.18 L316.56,148.25" id="Shape"></path>
            <path d="M63.18,158.18 L63.18,148.25" id="Shape"></path>
            <path d="M19.84,148.25 L106.53,148.25" id="Shape"></path>
            <path d="M106.53,148.25 L106.53,116.19" id="Shape"></path>
            <path d="M192.36,148.25 L266.88,148.25" id="Shape"></path>
            <path d="M192.36,148.25 L192.36,93.73" id="Shape"></path>
            <path d="M207.26,148.25 L207.26,96.35" id="Shape"></path>
            <path d="M237.07,148.25 L237.07,96.35" id="Shape"></path>
            <path d="M266.88,148.25 L266.88,93.73" id="Shape"></path>
            <path d="M192.36,93.73 L266.88,93.73" id="Shape"></path>
            <path d="M233.68,117.76 L233.68,124.22" id="Shape"></path>
            <path d="M233.68,124.22 L232.39,124.22" id="Shape"></path>
            <path d="M232.39,124.22 L232.39,117.76" id="Shape"></path>
            <path d="M232.39,117.76 L233.68,117.76" id="Shape"></path>
            <path d="M192.36,140.86 L266.88,140.86" id="Shape"></path>
            <path d="M192.36,96.35 L266.88,96.35" id="Shape"></path>
            <path d="M263.49,117.76 L263.49,124.22" id="Shape"></path>
            <path d="M263.49,124.22 L262.2,124.22" id="Shape"></path>
            <path d="M262.2,124.22 L262.2,117.76" id="Shape"></path>
            <path d="M262.2,117.76 L263.49,117.76" id="Shape"></path>
            <path d="M296.69,148.25 L346.37,148.25" id="Shape"></path>
            <path d="M296.69,148.25 L296.69,97.71" id="Shape"></path>
            <path d="M346.37,148.25 L346.37,97.71" id="Shape"></path>
            <path d="M296.69,97.71 L346.37,97.71" id="Shape"></path>
            <path d="M301.79,143.1 L319.15,143.1" id="Shape"></path>
            <path d="M323.91,143.1 L341.27,143.1" id="Shape"></path>
            <path d="M301.79,143.1 L301.79,108.18" id="Shape"></path>
            <path d="M341.27,143.1 L341.27,108.18" id="Shape"></path>
            <path d="M301.79,108.18 L319.15,108.18" id="Shape"></path>
            <path d="M323.91,108.18 L341.27,108.18" id="Shape"></path>
            <path d="M323.91,143.1 L323.91,108.18" id="Shape"></path>
            <path d="M319.15,143.1 L319.15,108.18" id="Shape"></path>
            <path d="M313.75,118.25 L307.19,118.25" id="Shape"></path>
            <path d="M307.19,118.25 L307.19,119.56" id="Shape"></path>
            <path d="M307.19,119.56 L313.75,119.56" id="Shape"></path>
            <path d="M313.75,119.56 L313.75,118.25" id="Shape"></path>
            <path d="M142.09,148.25 L142.09,118.24" id="Shape"></path>
            <path d="M89.35,124.2 L123.71,108.18" id="Shape"></path>
            <path d="M88.68,122.76 L123.04,106.74" id="Shape"></path>
            <path d="M88.68,122.76 L89.35,124.2" id="Shape"></path>
            <path d="M123.04,106.74 L123.71,108.18" id="Shape"></path>
            <path d="M63.18,148.25 L63.18,116.19" id="Shape"></path>
            <path d="M19.84,148.25 L19.84,116.19" id="Shape"></path>
            <path d="M387.54,88.49 L387.54,54.47" id="Shape"></path>
            <path d="M395.35,88.49 L395.35,54.47" id="Shape"></path>
            <path d="M392.59,88.49 L395.35,85.73" id="Shape"></path>
            <path d="M395.35,85.73 L387.54,77.91" id="Shape"></path>
            <path d="M387.54,77.91 L395.35,70.1" id="Shape"></path>
            <path d="M395.35,70.1 L387.54,62.28" id="Shape"></path>
            <path d="M387.54,62.28 L395.35,54.47" id="Shape"></path>
            <path d="M387.54,148.25 L481.32,148.25" id="Shape"></path>
            <path d="M387.54,54.47 L395.35,54.47" id="Shape"></path>
            <path d="M387.54,54.47 L481.32,54.47" id="Shape"></path>
            <path d="M387.54,62.28 L481.32,62.28" id="Shape"></path>
            <path d="M387.54,62.28 L395.35,54.47" id="Shape"></path>
            <path d="M395.35,54.47 L403.17,62.28" id="Shape"></path>
            <path d="M403.17,62.28 L410.98,54.47" id="Shape"></path>
            <path d="M410.98,54.47 L418.8,62.28" id="Shape"></path>
            <path d="M418.8,62.28 L426.61,54.47" id="Shape"></path>
            <path d="M426.61,54.47 L434.43,62.28" id="Shape"></path>
            <path d="M434.43,62.28 L442.24,54.47" id="Shape"></path>
            <path d="M442.24,54.47 L450.06,62.28" id="Shape"></path>
            <path d="M450.06,62.28 L457.87,54.47" id="Shape"></path>
            <path d="M457.87,54.47 L465.69,62.28" id="Shape"></path>
            <path d="M465.69,62.28 L473.5,54.47" id="Shape"></path>
            <path d="M473.5,54.47 L481.32,62.28" id="Shape"></path>
            <path d="M387.54,54.47 L387.54,62.28" id="Shape"></path>
            <path d="M481.32,54.47 L481.32,62.28" id="Shape"></path>
            <path d="M481.32,148.25 L481.32,54.47" id="Shape"></path>
            <path d="M473.5,148.25 L473.5,54.47" id="Shape"></path>
            <path d="M473.5,148.25 L481.32,140.43" id="Shape"></path>
            <path d="M481.32,140.43 L473.5,132.62" id="Shape"></path>
            <path d="M473.5,132.62 L481.32,124.8" id="Shape"></path>
            <path d="M481.32,124.8 L473.5,116.99" id="Shape"></path>
            <path d="M473.5,116.99 L481.32,109.17" id="Shape"></path>
            <path d="M481.32,109.17 L473.5,101.36" id="Shape"></path>
            <path d="M473.5,101.36 L481.32,93.54" id="Shape"></path>
            <path d="M481.32,93.54 L473.5,85.73" id="Shape"></path>
            <path d="M473.5,85.73 L481.32,77.91" id="Shape"></path>
            <path d="M481.32,77.91 L473.5,70.1" id="Shape"></path>
            <path d="M473.5,70.1 L481.32,62.28" id="Shape"></path>
            <path d="M481.32,62.28 L473.5,54.47" id="Shape"></path>
            <path d="M434.43,82.79 L440.57,83.85 M440.57,83.85 L446.77,84.51 M446.77,84.51 L453.01,84.78 M453.01,84.78 L459.24,84.65 M459.24,84.65 L465.46,84.12 M465.46,84.12 L471.63,83.2 M471.63,83.2 L477.72,81.89 M477.72,81.89 L483.73,80.19 M483.73,80.19 L489.61,78.12 M489.61,78.12 L495.35,75.67 M495.35,75.67 L500.92,72.87 M500.92,72.87 L506.3,69.72 M506.3,69.72 L511.47,66.23 M511.47,66.23 L516.41,62.42 M516.41,62.42 L521.1,58.31 M521.1,58.31 L525.52,53.9 M525.52,53.9 L529.64,49.23 M529.64,49.23 L533.47,44.3 M533.47,44.3 L536.97,39.14 M536.97,39.14 L540.13,33.76" id="Shape"></path>
            <path d="M414.89,82.79 L420.15,83.67 M420.15,83.67 L425.46,84.16 M425.46,84.16 L430.8,84.27 M430.8,84.27 L436.12,83.99 M436.12,83.99 L441.42,83.32 M441.42,83.32 L446.65,82.27 M446.65,82.27 L451.79,80.84 M451.79,80.84 L456.81,79.04 M456.81,79.04 L461.69,76.88 M461.69,76.88 L466.4,74.38 M466.4,74.38 L470.91,71.54 M470.91,71.54 L475.21,68.38 M475.21,68.38 L479.27,64.91 M479.27,64.91 L483.06,61.16 M483.06,61.16 L486.57,57.14 M486.57,57.14 L489.79,52.88 M489.79,52.88 L492.68,48.4 M492.68,48.4 L495.24,43.72 M495.24,43.72 L497.45,38.87 M497.45,38.87 L499.31,33.86" id="Shape"></path>
            <path d="M414.89,62.28 L414.89,69.56" id="Shape"></path>
            <path d="M416.76,70.3 L416.57,70.62 M416.57,70.62 L416.05,70.88 M416.05,70.88 L415.3,71.02 M415.3,71.02 L414.47,71.02 M414.47,71.02 L413.72,70.88 M413.72,70.88 L413.2,70.62 M413.2,70.62 L413.02,70.3 M413.02,70.3 L413.2,69.98 M413.2,69.98 L413.72,69.72 M413.72,69.72 L414.47,69.57 M414.47,69.57 L415.3,69.57 M415.3,69.57 L416.05,69.72 M416.05,69.72 L416.57,69.98 M416.57,69.98 L416.76,70.3" id="Shape"></path>
            <path d="M416.76,71.78 L416.57,72.1 M416.57,72.1 L416.05,72.36 M416.05,72.36 L415.3,72.5 M415.3,72.5 L414.47,72.5 M414.47,72.5 L413.72,72.36 M413.72,72.36 L413.2,72.1 M413.2,72.1 L413.02,71.78 M413.02,71.78 L413.2,71.46 M413.2,71.46 L413.72,71.2 M413.72,71.2 L414.47,71.06 M414.47,71.06 L415.3,71.06 M415.3,71.06 L416.05,71.2 M416.05,71.2 L416.57,71.46 M416.57,71.46 L416.76,71.78" id="Shape"></path>
            <path d="M416.76,73.26 L416.57,73.59 M416.57,73.59 L416.05,73.84 M416.05,73.84 L415.3,73.99 M415.3,73.99 L414.47,73.99 M414.47,73.99 L413.72,73.84 M413.72,73.84 L413.2,73.59 M413.2,73.59 L413.02,73.26 M413.02,73.26 L413.2,72.94 M413.2,72.94 L413.72,72.68 M413.72,72.68 L414.47,72.54 M414.47,72.54 L415.3,72.54 M415.3,72.54 L416.05,72.68 M416.05,72.68 L416.57,72.94 M416.57,72.94 L416.76,73.26" id="Shape"></path>
            <path d="M416.76,74.75 L416.57,75.07 M416.57,75.07 L416.05,75.33 M416.05,75.33 L415.3,75.47 M415.3,75.47 L414.47,75.47 M414.47,75.47 L413.72,75.33 M413.72,75.33 L413.2,75.07 M413.2,75.07 L413.02,74.75 M413.02,74.75 L413.2,74.43 M413.2,74.43 L413.72,74.17 M413.72,74.17 L414.47,74.03 M414.47,74.03 L415.3,74.03 M415.3,74.03 L416.05,74.17 M416.05,74.17 L416.57,74.43 M416.57,74.43 L416.76,74.75" id="Shape"></path>
            <path d="M416.76,76.23 L416.57,76.55 M416.57,76.55 L416.05,76.81 M416.05,76.81 L415.3,76.96 M415.3,76.96 L414.47,76.96 M414.47,76.96 L413.72,76.81 M413.72,76.81 L413.2,76.55 M413.2,76.55 L413.02,76.23 M413.02,76.23 L413.2,75.91 M413.2,75.91 L413.72,75.65 M413.72,75.65 L414.47,75.51 M414.47,75.51 L415.3,75.51 M415.3,75.51 L416.05,75.65 M416.05,75.65 L416.57,75.91 M416.57,75.91 L416.76,76.23" id="Shape"></path>
            <path d="M414.89,76.97 L414.89,80.61" id="Shape"></path>
            <path d="M413.8,81.7 L413.97,81.11 M413.97,81.11 L414.43,80.71 M414.43,80.71 L415.04,80.62 M415.04,80.62 L415.6,80.88 M415.6,80.88 L415.93,81.4 M415.93,81.4 L415.93,82.01 M415.93,82.01 L415.6,82.53 M415.6,82.53 L415.04,82.78 M415.04,82.78 L414.43,82.7 M414.43,82.7 L413.97,82.29 M413.97,82.29 L413.8,81.7" id="Shape"></path>
            <path d="M414.02,103.92 L414.21,103.27 M414.21,103.27 L414.72,102.83 M414.72,102.83 L415.39,102.73 M415.39,102.73 L416,103.01 M416,103.01 L416.37,103.58 M416.37,103.58 L416.37,104.26 M416.37,104.26 L416,104.83 M416,104.83 L415.39,105.11 M415.39,105.11 L414.72,105.01 M414.72,105.01 L414.21,104.57 M414.21,104.57 L414.02,103.92" id="Shape"></path>
            <path d="M415.62,105.05 L415.62,109.05" id="Shape"></path>
            <path d="M414.82,105.05 L414.82,109.05" id="Shape"></path>
            <path d="M411.22,109.05 L419.22,109.05" id="Shape"></path>
            <path d="M411.22,110.25 L419.22,110.25" id="Shape"></path>
            <path d="M417.62,110.25 L417.62,133.45" id="Shape"></path>
            <path d="M412.82,110.25 L412.82,133.45" id="Shape"></path>
            <path d="M411.22,133.45 L419.22,133.45" id="Shape"></path>
            <path d="M410.02,134.66 L420.42,134.66" id="Shape"></path>
            <path d="M410.02,135.86 L420.42,135.86" id="Shape"></path>
            <path d="M419.22,109.05 L419.22,110.25" id="Shape"></path>
            <path d="M411.22,109.05 L411.22,110.25" id="Shape"></path>
            <path d="M419.22,133.45 L419.22,134.66" id="Shape"></path>
            <path d="M411.22,133.45 L411.22,134.66" id="Shape"></path>
            <path d="M420.42,134.66 L420.42,135.86" id="Shape"></path>
            <path d="M410.02,134.66 L410.02,135.86" id="Shape"></path>
            <path d="M411.22,135.86 L411.22,148.25" id="Shape"></path>
            <path d="M415.22,135.86 L415.22,148.25" id="Shape"></path>
            <path d="M419.22,135.86 L419.22,148.25" id="Shape"></path>
            <path d="M411.22,148.25 L415.22,135.86" id="Shape"></path>
            <path d="M415.22,148.25 L411.22,135.86" id="Shape"></path>
            <path d="M415.22,148.25 L419.22,135.86" id="Shape"></path>
            <path d="M419.22,148.25 L415.22,135.86" id="Shape"></path>
            <path d="M434.43,62.28 L434.43,69.56" id="Shape"></path>
            <path d="M436.29,70.3 L436.11,70.62 M436.11,70.62 L435.59,70.88 M435.59,70.88 L434.84,71.02 M434.84,71.02 L434.01,71.02 M434.01,71.02 L433.26,70.88 M433.26,70.88 L432.74,70.62 M432.74,70.62 L432.56,70.3 M432.56,70.3 L432.74,69.98 M432.74,69.98 L433.26,69.72 M433.26,69.72 L434.01,69.57 M434.01,69.57 L434.84,69.57 M434.84,69.57 L435.59,69.72 M435.59,69.72 L436.11,69.98 M436.11,69.98 L436.29,70.3" id="Shape"></path>
            <path d="M436.29,71.78 L436.11,72.1 M436.11,72.1 L435.59,72.36 M435.59,72.36 L434.84,72.5 M434.84,72.5 L434.01,72.5 M434.01,72.5 L433.26,72.36 M433.26,72.36 L432.74,72.1 M432.74,72.1 L432.56,71.78 M432.56,71.78 L432.74,71.46 M432.74,71.46 L433.26,71.2 M433.26,71.2 L434.01,71.06 M434.01,71.06 L434.84,71.06 M434.84,71.06 L435.59,71.2 M435.59,71.2 L436.11,71.46 M436.11,71.46 L436.29,71.78" id="Shape"></path>
            <path d="M436.29,73.26 L436.11,73.59 M436.11,73.59 L435.59,73.84 M435.59,73.84 L434.84,73.99 M434.84,73.99 L434.01,73.99 M434.01,73.99 L433.26,73.84 M433.26,73.84 L432.74,73.59 M432.74,73.59 L432.56,73.26 M432.56,73.26 L432.74,72.94 M432.74,72.94 L433.26,72.68 M433.26,72.68 L434.01,72.54 M434.01,72.54 L434.84,72.54 M434.84,72.54 L435.59,72.68 M435.59,72.68 L436.11,72.94 M436.11,72.94 L436.29,73.26" id="Shape"></path>
            <path d="M436.29,74.75 L436.11,75.07 M436.11,75.07 L435.59,75.33 M435.59,75.33 L434.84,75.47 M434.84,75.47 L434.01,75.47 M434.01,75.47 L433.26,75.33 M433.26,75.33 L432.74,75.07 M432.74,75.07 L432.56,74.75 M432.56,74.75 L432.74,74.43 M432.74,74.43 L433.26,74.17 M433.26,74.17 L434.01,74.03 M434.01,74.03 L434.84,74.03 M434.84,74.03 L435.59,74.17 M435.59,74.17 L436.11,74.43 M436.11,74.43 L436.29,74.75" id="Shape"></path>
            <path d="M436.29,76.23 L436.11,76.55 M436.11,76.55 L435.59,76.81 M435.59,76.81 L434.84,76.96 M434.84,76.96 L434.01,76.96 M434.01,76.96 L433.26,76.81 M433.26,76.81 L432.74,76.55 M432.74,76.55 L432.56,76.23 M432.56,76.23 L432.74,75.91 M432.74,75.91 L433.26,75.65 M433.26,75.65 L434.01,75.51 M434.01,75.51 L434.84,75.51 M434.84,75.51 L435.59,75.65 M435.59,75.65 L436.11,75.91 M436.11,75.91 L436.29,76.23" id="Shape"></path>
            <path d="M434.43,76.97 L434.43,80.61" id="Shape"></path>
            <path d="M433.33,81.7 L433.51,81.11 M433.51,81.11 L433.97,80.71 M433.97,80.71 L434.58,80.62 M434.58,80.62 L435.14,80.88 M435.14,80.88 L435.47,81.4 M435.47,81.4 L435.47,82.01 M435.47,82.01 L435.14,82.53 M435.14,82.53 L434.58,82.78 M434.58,82.78 L433.97,82.7 M433.97,82.7 L433.51,82.29 M433.51,82.29 L433.33,81.7" id="Shape"></path>
            <path d="M433.56,103.92 L433.75,103.27 M433.75,103.27 L434.26,102.83 M434.26,102.83 L434.93,102.73 M434.93,102.73 L435.54,103.01 M435.54,103.01 L435.91,103.58 M435.91,103.58 L435.91,104.26 M435.91,104.26 L435.54,104.83 M435.54,104.83 L434.93,105.11 M434.93,105.11 L434.26,105.01 M434.26,105.01 L433.75,104.57 M433.75,104.57 L433.56,103.92" id="Shape"></path>
            <path d="M435.16,105.05 L435.16,109.05" id="Shape"></path>
            <path d="M434.36,105.05 L434.36,109.05" id="Shape"></path>
            <path d="M430.76,109.05 L438.76,109.05" id="Shape"></path>
            <path d="M430.76,110.25 L438.76,110.25" id="Shape"></path>
            <path d="M437.16,110.25 L437.16,133.45" id="Shape"></path>
            <path d="M432.36,110.25 L432.36,133.45" id="Shape"></path>
            <path d="M430.76,133.45 L438.76,133.45" id="Shape"></path>
            <path d="M429.56,134.66 L439.96,134.66" id="Shape"></path>
            <path d="M429.56,135.86 L439.96,135.86" id="Shape"></path>
            <path d="M438.76,109.05 L438.76,110.25" id="Shape"></path>
            <path d="M430.76,109.05 L430.76,110.25" id="Shape"></path>
            <path d="M438.76,133.45 L438.76,134.66" id="Shape"></path>
            <path d="M430.76,133.45 L430.76,134.66" id="Shape"></path>
            <path d="M439.96,134.66 L439.96,135.86" id="Shape"></path>
            <path d="M429.56,134.66 L429.56,135.86" id="Shape"></path>
            <path d="M430.76,135.86 L430.76,148.25" id="Shape"></path>
            <path d="M434.76,135.86 L434.76,148.25" id="Shape"></path>
            <path d="M438.76,135.86 L438.76,148.25" id="Shape"></path>
            <path d="M430.76,148.25 L434.76,135.86" id="Shape"></path>
            <path d="M434.76,148.25 L430.76,135.86" id="Shape"></path>
            <path d="M434.76,148.25 L438.76,135.86" id="Shape"></path>
            <path d="M438.76,148.25 L434.76,135.86" id="Shape"></path>
            <path d="M549.88,71.92 L560.29,148.25" id="Shape"></path>
            <path d="M560.29,148.25 L540.62,107.88" id="Shape"></path>
            <path d="M581.7,18.23 L581.7,21.96" id="Shape"></path>
            <path d="M583.38,22.63 L583.19,22.94 M583.19,22.94 L582.66,23.18 M582.66,23.18 L581.9,23.29 M581.9,23.29 L581.1,23.25 M581.1,23.25 L580.44,23.07 M580.44,23.07 L580.06,22.79 M580.06,22.79 L580.06,22.47 M580.06,22.47 L580.44,22.18 M580.44,22.18 L581.1,22 M581.1,22 L581.9,21.96 M581.9,21.96 L582.66,22.08 M582.66,22.08 L583.19,22.32 M583.19,22.32 L583.38,22.63" id="Shape"></path>
            <path d="M583.38,23.97 L583.19,24.28 M583.19,24.28 L582.66,24.52 M582.66,24.52 L581.9,24.63 M581.9,24.63 L581.1,24.59 M581.1,24.59 L580.44,24.41 M580.44,24.41 L580.06,24.13 M580.06,24.13 L580.06,23.81 M580.06,23.81 L580.44,23.52 M580.44,23.52 L581.1,23.34 M581.1,23.34 L581.9,23.3 M581.9,23.3 L582.66,23.42 M582.66,23.42 L583.19,23.66 M583.19,23.66 L583.38,23.97" id="Shape"></path>
            <path d="M583.38,25.3 L583.19,25.61 M583.19,25.61 L582.66,25.85 M582.66,25.85 L581.9,25.97 M581.9,25.97 L581.1,25.93 M581.1,25.93 L580.44,25.75 M580.44,25.75 L580.06,25.46 M580.06,25.46 L580.06,25.14 M580.06,25.14 L580.44,24.86 M580.44,24.86 L581.1,24.68 M581.1,24.68 L581.9,24.64 M581.9,24.64 L582.66,24.75 M582.66,24.75 L583.19,24.99 M583.19,24.99 L583.38,25.3" id="Shape"></path>
            <path d="M583.38,26.64 L583.19,26.95 M583.19,26.95 L582.66,27.19 M582.66,27.19 L581.9,27.31 M581.9,27.31 L581.1,27.27 M581.1,27.27 L580.44,27.09 M580.44,27.09 L580.06,26.8 M580.06,26.8 L580.06,26.48 M580.06,26.48 L580.44,26.2 M580.44,26.2 L581.1,26.02 M581.1,26.02 L581.9,25.98 M581.9,25.98 L582.66,26.09 M582.66,26.09 L583.19,26.33 M583.19,26.33 L583.38,26.64" id="Shape"></path>
            <path d="M583.38,27.98 L583.19,28.29 M583.19,28.29 L582.66,28.53 M582.66,28.53 L581.9,28.64 M581.9,28.64 L581.1,28.6 M581.1,28.6 L580.44,28.42 M580.44,28.42 L580.06,28.14 M580.06,28.14 L580.06,27.82 M580.06,27.82 L580.44,27.54 M580.44,27.54 L581.1,27.35 M581.1,27.35 L581.9,27.32 M581.9,27.32 L582.66,27.43 M582.66,27.43 L583.19,27.67 M583.19,27.67 L583.38,27.98" id="Shape"></path>
            <path d="M581.7,28.65 L581.7,31.93" id="Shape"></path>
            <path d="M580.71,32.91 L580.9,32.33 M580.9,32.33 L581.39,31.98 M581.39,31.98 L582,31.98 M582,31.98 L582.49,32.33 M582.49,32.33 L582.68,32.91 M582.68,32.91 L582.49,33.49 M582.49,33.49 L582,33.85 M582,33.85 L581.39,33.85 M581.39,33.85 L580.9,33.49 M580.9,33.49 L580.71,32.91" id="Shape"></path>
            <path d="M540.62,18.23 L540.62,21.96" id="Shape"></path>
            <path d="M542.31,22.63 L542.12,22.94 M542.12,22.94 L541.58,23.18 M541.58,23.18 L540.83,23.29 M540.83,23.29 L540.03,23.25 M540.03,23.25 L539.36,23.07 M539.36,23.07 L538.99,22.79 M538.99,22.79 L538.99,22.47 M538.99,22.47 L539.36,22.18 M539.36,22.18 L540.03,22 M540.03,22 L540.83,21.96 M540.83,21.96 L541.58,22.08 M541.58,22.08 L542.12,22.32 M542.12,22.32 L542.31,22.63" id="Shape"></path>
            <path d="M542.31,23.97 L542.12,24.28 M542.12,24.28 L541.58,24.52 M541.58,24.52 L540.83,24.63 M540.83,24.63 L540.03,24.59 M540.03,24.59 L539.36,24.41 M539.36,24.41 L538.99,24.13 M538.99,24.13 L538.99,23.81 M538.99,23.81 L539.36,23.52 M539.36,23.52 L540.03,23.34 M540.03,23.34 L540.83,23.3 M540.83,23.3 L541.58,23.42 M541.58,23.42 L542.12,23.66 M542.12,23.66 L542.31,23.97" id="Shape"></path>
            <path d="M542.31,25.3 L542.12,25.61 M542.12,25.61 L541.58,25.85 M541.58,25.85 L540.83,25.97 M540.83,25.97 L540.03,25.93 M540.03,25.93 L539.36,25.75 M539.36,25.75 L538.99,25.46 M538.99,25.46 L538.99,25.14 M538.99,25.14 L539.36,24.86 M539.36,24.86 L540.03,24.68 M540.03,24.68 L540.83,24.64 M540.83,24.64 L541.58,24.75 M541.58,24.75 L542.12,24.99 M542.12,24.99 L542.31,25.3" id="Shape"></path>
            <path d="M542.31,26.64 L542.12,26.95 M542.12,26.95 L541.58,27.19 M541.58,27.19 L540.83,27.31 M540.83,27.31 L540.03,27.27 M540.03,27.27 L539.36,27.09 M539.36,27.09 L538.99,26.8 M538.99,26.8 L538.99,26.48 M538.99,26.48 L539.36,26.2 M539.36,26.2 L540.03,26.02 M540.03,26.02 L540.83,25.98 M540.83,25.98 L541.58,26.09 M541.58,26.09 L542.12,26.33 M542.12,26.33 L542.31,26.64" id="Shape"></path>
            <path d="M542.31,27.98 L542.12,28.29 M542.12,28.29 L541.58,28.53 M541.58,28.53 L540.83,28.64 M540.83,28.64 L540.03,28.6 M540.03,28.6 L539.36,28.42 M539.36,28.42 L538.99,28.14 M538.99,28.14 L538.99,27.82 M538.99,27.82 L539.36,27.54 M539.36,27.54 L540.03,27.35 M540.03,27.35 L540.83,27.32 M540.83,27.32 L541.58,27.43 M541.58,27.43 L542.12,27.67 M542.12,27.67 L542.31,27.98" id="Shape"></path>
            <path d="M540.62,28.65 L540.62,31.93" id="Shape"></path>
            <path d="M539.64,32.91 L539.83,32.33 M539.83,32.33 L540.32,31.98 M540.32,31.98 L540.93,31.98 M540.93,31.98 L541.42,32.33 M541.42,32.33 L541.61,32.91 M541.61,32.91 L541.42,33.49 M541.42,33.49 L540.93,33.85 M540.93,33.85 L540.32,33.85 M540.32,33.85 L539.83,33.49 M539.83,33.49 L539.64,32.91" id="Shape"></path>
            <path d="M453.96,82.79 L460.4,84.39 M460.4,84.39 L466.93,85.61 M466.93,85.61 L473.51,86.44 M473.51,86.44 L480.13,86.89 M480.13,86.89 L486.77,86.95 M486.77,86.95 L493.4,86.62 M493.4,86.62 L500,85.9 M500,85.9 L506.54,84.8 M506.54,84.8 L513.01,83.32 M513.01,83.32 L519.38,81.46 M519.38,81.46 L525.63,79.24 M525.63,79.24 L531.75,76.65 M531.75,76.65 L537.7,73.71 M537.7,73.71 L543.46,70.43 M543.46,70.43 L549.03,66.82 M549.03,66.82 L554.37,62.88 M554.37,62.88 L559.48,58.64 M559.48,58.64 L564.33,54.11 M564.33,54.11 L568.91,49.31 M568.91,49.31 L573.19,44.24 M573.19,44.24 L577.18,38.93 M577.18,38.93 L580.85,33.4" id="Shape"></path>
            <path d="M453.96,62.28 L453.96,69.56" id="Shape"></path>
            <path d="M455.83,70.3 L455.65,70.62 M455.65,70.62 L455.13,70.88 M455.13,70.88 L454.38,71.02 M454.38,71.02 L453.55,71.02 M453.55,71.02 L452.8,70.88 M452.8,70.88 L452.28,70.62 M452.28,70.62 L452.09,70.3 M452.09,70.3 L452.28,69.98 M452.28,69.98 L452.8,69.72 M452.8,69.72 L453.55,69.57 M453.55,69.57 L454.38,69.57 M454.38,69.57 L455.13,69.72 M455.13,69.72 L455.65,69.98 M455.65,69.98 L455.83,70.3" id="Shape"></path>
            <path d="M455.83,71.78 L455.65,72.1 M455.65,72.1 L455.13,72.36 M455.13,72.36 L454.38,72.5 M454.38,72.5 L453.55,72.5 M453.55,72.5 L452.8,72.36 M452.8,72.36 L452.28,72.1 M452.28,72.1 L452.09,71.78 M452.09,71.78 L452.28,71.46 M452.28,71.46 L452.8,71.2 M452.8,71.2 L453.55,71.06 M453.55,71.06 L454.38,71.06 M454.38,71.06 L455.13,71.2 M455.13,71.2 L455.65,71.46 M455.65,71.46 L455.83,71.78" id="Shape"></path>
            <path d="M455.83,73.26 L455.65,73.59 M455.65,73.59 L455.13,73.84 M455.13,73.84 L454.38,73.99 M454.38,73.99 L453.55,73.99 M453.55,73.99 L452.8,73.84 M452.8,73.84 L452.28,73.59 M452.28,73.59 L452.09,73.26 M452.09,73.26 L452.28,72.94 M452.28,72.94 L452.8,72.68 M452.8,72.68 L453.55,72.54 M453.55,72.54 L454.38,72.54 M454.38,72.54 L455.13,72.68 M455.13,72.68 L455.65,72.94 M455.65,72.94 L455.83,73.26" id="Shape"></path>
            <path d="M455.83,74.75 L455.65,75.07 M455.65,75.07 L455.13,75.33 M455.13,75.33 L454.38,75.47 M454.38,75.47 L453.55,75.47 M453.55,75.47 L452.8,75.33 M452.8,75.33 L452.28,75.07 M452.28,75.07 L452.09,74.75 M452.09,74.75 L452.28,74.43 M452.28,74.43 L452.8,74.17 M452.8,74.17 L453.55,74.03 M453.55,74.03 L454.38,74.03 M454.38,74.03 L455.13,74.17 M455.13,74.17 L455.65,74.43 M455.65,74.43 L455.83,74.75" id="Shape"></path>
            <path d="M455.83,76.23 L455.65,76.55 M455.65,76.55 L455.13,76.81 M455.13,76.81 L454.38,76.96 M454.38,76.96 L453.55,76.96 M453.55,76.96 L452.8,76.81 M452.8,76.81 L452.28,76.55 M452.28,76.55 L452.09,76.23 M452.09,76.23 L452.28,75.91 M452.28,75.91 L452.8,75.65 M452.8,75.65 L453.55,75.51 M453.55,75.51 L454.38,75.51 M454.38,75.51 L455.13,75.65 M455.13,75.65 L455.65,75.91 M455.65,75.91 L455.83,76.23" id="Shape"></path>
            <path d="M453.96,76.97 L453.96,80.61" id="Shape"></path>
            <path d="M452.87,81.7 L453.04,81.11 M453.04,81.11 L453.51,80.71 M453.51,80.71 L454.12,80.62 M454.12,80.62 L454.68,80.88 M454.68,80.88 L455.01,81.4 M455.01,81.4 L455.01,82.01 M455.01,82.01 L454.68,82.53 M454.68,82.53 L454.12,82.78 M454.12,82.78 L453.51,82.7 M453.51,82.7 L453.04,82.29 M453.04,82.29 L452.87,81.7" id="Shape"></path>
            <path d="M453.09,103.92 L453.28,103.27 M453.28,103.27 L453.79,102.83 M453.79,102.83 L454.46,102.73 M454.46,102.73 L455.08,103.01 M455.08,103.01 L455.45,103.58 M455.45,103.58 L455.45,104.26 M455.45,104.26 L455.08,104.83 M455.08,104.83 L454.46,105.11 M454.46,105.11 L453.79,105.01 M453.79,105.01 L453.28,104.57 M453.28,104.57 L453.09,103.92" id="Shape"></path>
            <path d="M454.69,105.05 L454.69,109.05" id="Shape"></path>
            <path d="M453.89,105.05 L453.89,109.05" id="Shape"></path>
            <path d="M450.29,109.05 L458.29,109.05" id="Shape"></path>
            <path d="M450.29,110.25 L458.29,110.25" id="Shape"></path>
            <path d="M456.69,110.25 L456.69,133.45" id="Shape"></path>
            <path d="M451.89,110.25 L451.89,133.45" id="Shape"></path>
            <path d="M450.29,133.45 L458.29,133.45" id="Shape"></path>
            <path d="M449.09,134.66 L459.49,134.66" id="Shape"></path>
            <path d="M449.09,135.86 L459.49,135.86" id="Shape"></path>
            <path d="M458.29,109.05 L458.29,110.25" id="Shape"></path>
            <path d="M450.29,109.05 L450.29,110.25" id="Shape"></path>
            <path d="M458.29,133.45 L458.29,134.66" id="Shape"></path>
            <path d="M450.29,133.45 L450.29,134.66" id="Shape"></path>
            <path d="M459.49,134.66 L459.49,135.86" id="Shape"></path>
            <path d="M449.09,134.66 L449.09,135.86" id="Shape"></path>
            <path d="M450.29,135.86 L450.29,148.25" id="Shape"></path>
            <path d="M454.29,135.86 L454.29,148.25" id="Shape"></path>
            <path d="M458.29,135.86 L458.29,148.25" id="Shape"></path>
            <path d="M450.29,148.25 L454.29,135.86" id="Shape"></path>
            <path d="M454.29,148.25 L450.29,135.86" id="Shape"></path>
            <path d="M454.29,148.25 L458.29,135.86" id="Shape"></path>
            <path d="M458.29,148.25 L454.29,135.86" id="Shape"></path>
            <path d="M477.46,148.25 L594.29,148.25" id="Shape"></path>
            <path d="M582.54,33.42 L586.33,35.6 M586.33,35.6 L590.25,37.52 M590.25,37.52 L594.29,39.18" id="Shape"></path>
            <path d="M46,124.2 L80.37,108.18" id="Shape"></path>
            <path d="M45.33,122.76 L79.69,106.74" id="Shape"></path>
            <path d="M45.33,122.76 L46,124.2" id="Shape"></path>
            <path d="M79.69,106.74 L80.37,108.18" id="Shape"></path>
            <path d="M2.65,124.2 L37.02,108.18" id="Shape"></path>
            <path d="M1.98,122.76 L36.35,106.74" id="Shape"></path>
            <path d="M1.98,122.76 L2.65,124.2" id="Shape"></path>
            <path d="M36.35,106.74 L37.02,108.18" id="Shape"></path>
            <path d="M14.87,54.34 L14.87,75.14" id="Shape"></path>
            <path d="M25.54,51.97 L34.33,70.83" id="Shape"></path>
            <path d="M34.2,45.32 L50.14,58.7" id="Shape"></path>
            <path d="M1.18,29.1 L1.38,26.79 M1.38,26.79 L1.96,24.54 M1.96,24.54 L2.92,22.42 M2.92,22.42 L4.22,20.5 M4.22,20.5 L5.83,18.82 M5.83,18.82 L7.69,17.44 M7.69,17.44 L9.77,16.4 M9.77,16.4 L11.99,15.72 M11.99,15.72 L14.29,15.42 M14.29,15.42 L16.61,15.52 M16.61,15.52 L18.88,16.01 M18.88,16.01 L21.03,16.88 M21.03,16.88 L23.01,18.09 M23.01,18.09 L24.75,19.63 M24.75,19.63 L26.21,21.43 M26.21,21.43 L27.34,23.46 M27.34,23.46 L28.11,25.65 M28.11,25.65 L28.51,27.94 M28.51,27.94 L28.51,30.26 M28.51,30.26 L28.11,32.55 M28.11,32.55 L27.34,34.74 M27.34,34.74 L26.21,36.76 M26.21,36.76 L24.75,38.57 M24.75,38.57 L23.01,40.1 M23.01,40.1 L21.03,41.32 M21.03,41.32 L18.88,42.19 M18.88,42.19 L16.61,42.68 M16.61,42.68 L14.29,42.77 M14.29,42.77 L11.99,42.48 M11.99,42.48 L9.77,41.8 M9.77,41.8 L7.69,40.75 M7.69,40.75 L5.83,39.37 M5.83,39.37 L4.22,37.7 M4.22,37.7 L2.92,35.77 M2.92,35.77 L1.96,33.66 M1.96,33.66 L1.38,31.41 M1.38,31.41 L1.18,29.1" id="Shape"></path>
            <path d="M395.35,54.47 L388.65,49.99" id="Shape"></path>
            <path d="M388.65,49.99 L392.9,44.67" id="Shape"></path>
            <path d="M387.54,54.47 L391.44,38.84" id="Shape"></path>
            <path d="M391.44,38.84 L395.35,54.47" id="Shape"></path>
            <path d="M391.44,38.84 L391.44,31.38" id="Shape"></path>
            <path d="M473.5,54.47 L480.2,49.99" id="Shape"></path>
            <path d="M480.2,49.99 L475.95,44.67" id="Shape"></path>
            <path d="M481.32,54.47 L477.41,38.84" id="Shape"></path>
            <path d="M477.41,38.84 L473.5,54.47" id="Shape"></path>
            <path d="M477.41,38.84 L477.41,31.38" id="Shape"></path>
            <path d="M413.81,130.66 L416.63,130.66" id="Shape"></path>
            <path d="M416.63,130.66 L416.63,132.46" id="Shape"></path>
            <path d="M413.81,132.46 L416.63,132.46" id="Shape"></path>
            <path d="M413.81,130.66 L413.81,132.46" id="Shape"></path>
            <path d="M413.81,127.87 L416.63,127.87" id="Shape"></path>
            <path d="M416.63,127.87 L416.63,129.67" id="Shape"></path>
            <path d="M413.81,129.67 L416.63,129.67" id="Shape"></path>
            <path d="M413.81,127.87 L413.81,129.67" id="Shape"></path>
            <path d="M413.81,125.07 L416.63,125.07" id="Shape"></path>
            <path d="M416.63,125.07 L416.63,126.87" id="Shape"></path>
            <path d="M413.81,126.87 L416.63,126.87" id="Shape"></path>
            <path d="M413.81,125.07 L413.81,126.87" id="Shape"></path>
            <path d="M413.81,122.28 L416.63,122.28" id="Shape"></path>
            <path d="M416.63,122.28 L416.63,124.08" id="Shape"></path>
            <path d="M413.81,124.08 L416.63,124.08" id="Shape"></path>
            <path d="M413.81,122.28 L413.81,124.08" id="Shape"></path>
            <path d="M413.81,119.49 L416.63,119.49" id="Shape"></path>
            <path d="M416.63,119.49 L416.63,121.29" id="Shape"></path>
            <path d="M413.81,121.29 L416.63,121.29" id="Shape"></path>
            <path d="M413.81,119.49 L413.81,121.29" id="Shape"></path>
            <path d="M413.81,116.69 L416.63,116.69" id="Shape"></path>
            <path d="M416.63,116.69 L416.63,118.49" id="Shape"></path>
            <path d="M413.81,118.49 L416.63,118.49" id="Shape"></path>
            <path d="M413.81,116.69 L413.81,118.49" id="Shape"></path>
            <path d="M413.81,113.9 L416.63,113.9" id="Shape"></path>
            <path d="M416.63,113.9 L416.63,115.7" id="Shape"></path>
            <path d="M413.81,115.7 L416.63,115.7" id="Shape"></path>
            <path d="M413.81,113.9 L413.81,115.7" id="Shape"></path>
            <path d="M413.81,111.1 L416.63,111.1" id="Shape"></path>
            <path d="M416.63,111.1 L416.63,112.9" id="Shape"></path>
            <path d="M413.81,112.9 L416.63,112.9" id="Shape"></path>
            <path d="M413.81,111.1 L413.81,112.9" id="Shape"></path>
            <path d="M433.35,130.66 L436.16,130.66" id="Shape"></path>
            <path d="M436.16,130.66 L436.16,132.46" id="Shape"></path>
            <path d="M433.35,132.46 L436.16,132.46" id="Shape"></path>
            <path d="M433.35,130.66 L433.35,132.46" id="Shape"></path>
            <path d="M433.35,127.87 L436.16,127.87" id="Shape"></path>
            <path d="M436.16,127.87 L436.16,129.67" id="Shape"></path>
            <path d="M433.35,129.67 L436.16,129.67" id="Shape"></path>
            <path d="M433.35,127.87 L433.35,129.67" id="Shape"></path>
            <path d="M433.35,125.07 L436.16,125.07" id="Shape"></path>
            <path d="M436.16,125.07 L436.16,126.87" id="Shape"></path>
            <path d="M433.35,126.87 L436.16,126.87" id="Shape"></path>
            <path d="M433.35,125.07 L433.35,126.87" id="Shape"></path>
            <path d="M433.35,122.28 L436.16,122.28" id="Shape"></path>
            <path d="M436.16,122.28 L436.16,124.08" id="Shape"></path>
            <path d="M433.35,124.08 L436.16,124.08" id="Shape"></path>
            <path d="M433.35,122.28 L433.35,124.08" id="Shape"></path>
            <path d="M433.35,119.49 L436.16,119.49" id="Shape"></path>
            <path d="M436.16,119.49 L436.16,121.29" id="Shape"></path>
            <path d="M433.35,121.29 L436.16,121.29" id="Shape"></path>
            <path d="M433.35,119.49 L433.35,121.29" id="Shape"></path>
            <path d="M433.35,116.69 L436.16,116.69" id="Shape"></path>
            <path d="M436.16,116.69 L436.16,118.49" id="Shape"></path>
            <path d="M433.35,118.49 L436.16,118.49" id="Shape"></path>
            <path d="M433.35,116.69 L433.35,118.49" id="Shape"></path>
            <path d="M433.35,113.9 L436.16,113.9" id="Shape"></path>
            <path d="M436.16,113.9 L436.16,115.7" id="Shape"></path>
            <path d="M433.35,115.7 L436.16,115.7" id="Shape"></path>
            <path d="M433.35,113.9 L433.35,115.7" id="Shape"></path>
            <path d="M433.35,111.1 L436.16,111.1" id="Shape"></path>
            <path d="M436.16,111.1 L436.16,112.9" id="Shape"></path>
            <path d="M433.35,112.9 L436.16,112.9" id="Shape"></path>
            <path d="M433.35,111.1 L433.35,112.9" id="Shape"></path>
            <path d="M452.89,130.66 L455.7,130.66" id="Shape"></path>
            <path d="M455.7,130.66 L455.7,132.46" id="Shape"></path>
            <path d="M452.89,132.46 L455.7,132.46" id="Shape"></path>
            <path d="M452.89,130.66 L452.89,132.46" id="Shape"></path>
            <path d="M452.89,127.87 L455.7,127.87" id="Shape"></path>
            <path d="M455.7,127.87 L455.7,129.67" id="Shape"></path>
            <path d="M452.89,129.67 L455.7,129.67" id="Shape"></path>
            <path d="M452.89,127.87 L452.89,129.67" id="Shape"></path>
            <path d="M452.89,125.07 L455.7,125.07" id="Shape"></path>
            <path d="M455.7,125.07 L455.7,126.87" id="Shape"></path>
            <path d="M452.89,126.87 L455.7,126.87" id="Shape"></path>
            <path d="M452.89,125.07 L452.89,126.87" id="Shape"></path>
            <path d="M452.89,122.28 L455.7,122.28" id="Shape"></path>
            <path d="M455.7,122.28 L455.7,124.08" id="Shape"></path>
            <path d="M452.89,124.08 L455.7,124.08" id="Shape"></path>
            <path d="M452.89,122.28 L452.89,124.08" id="Shape"></path>
            <path d="M452.89,119.49 L455.7,119.49" id="Shape"></path>
            <path d="M455.7,119.49 L455.7,121.29" id="Shape"></path>
            <path d="M452.89,121.29 L455.7,121.29" id="Shape"></path>
            <path d="M452.89,119.49 L452.89,121.29" id="Shape"></path>
            <path d="M452.89,116.69 L455.7,116.69" id="Shape"></path>
            <path d="M455.7,116.69 L455.7,118.49" id="Shape"></path>
            <path d="M452.89,118.49 L455.7,118.49" id="Shape"></path>
            <path d="M452.89,116.69 L452.89,118.49" id="Shape"></path>
            <path d="M452.89,113.9 L455.7,113.9" id="Shape"></path>
            <path d="M455.7,113.9 L455.7,115.7" id="Shape"></path>
            <path d="M452.89,115.7 L455.7,115.7" id="Shape"></path>
            <path d="M452.89,113.9 L452.89,115.7" id="Shape"></path>
            <path d="M452.89,111.1 L455.7,111.1" id="Shape"></path>
            <path d="M455.7,111.1 L455.7,112.9" id="Shape"></path>
            <path d="M452.89,112.9 L455.7,112.9" id="Shape"></path>
            <path d="M452.89,111.1 L452.89,112.9" id="Shape"></path>
            <path d="M335.87,118.25 L329.31,118.25" id="Shape"></path>
            <path d="M329.31,118.25 L329.31,119.56" id="Shape"></path>
            <path d="M329.31,119.56 L335.87,119.56" id="Shape"></path>
            <path d="M335.87,119.56 L335.87,118.25" id="Shape"></path>
            <path d="M372.38,148.25 L402.7,148.25" id="Shape"></path>
            <path d="M372.38,148.25 L372.38,88.49" id="Shape"></path>
            <path d="M372.38,88.49 L402.7,88.49" id="Shape"></path>
            <path d="M377.99,142.59 L397.08,142.59" id="Shape"></path>
            <path d="M377.99,142.59 L377.99,100" id="Shape"></path>
            <path d="M377.99,100 L397.08,100" id="Shape"></path>
            <path d="M397.08,142.59 L397.08,100" id="Shape"></path>
            <path d="M391.14,111.08 L383.93,111.08" id="Shape"></path>
            <path d="M383.93,111.08 L383.93,112.52" id="Shape"></path>
            <path d="M383.93,112.52 L391.14,112.52" id="Shape"></path>
            <path d="M391.14,112.52 L391.14,111.08" id="Shape"></path>
            <path d="M402.7,148.25 L402.7,88.49" id="Shape"></path>
            <path d="M434.43,82.79 L433.92,86.77 M433.92,86.77 L433.69,90.77 M433.69,90.77 L433.74,94.77 M433.74,94.77 L434.08,98.76 M434.08,98.76 L434.69,102.72" id="Shape"></path>
            <path d="M554.78,107.88 L526.47,107.88" id="Shape"></path>
            <path d="M552.3,131.86 L556.42,119.87" id="Shape"></path>
            <path d="M546.46,119.87 L554.78,107.88" id="Shape"></path>
            <path d="M556.42,119.87 L549.7,115.21" id="Shape"></path>
            <path d="M558.05,131.86 L553.7,127.78" id="Shape"></path>
            <path d="M531.37,71.92 L520.96,148.25" id="Shape"></path>
            <path d="M520.96,148.25 L540.62,107.88" id="Shape"></path>
            <path d="M528.95,131.86 L524.83,119.87" id="Shape"></path>
            <path d="M534.79,119.87 L526.47,107.88" id="Shape"></path>
            <path d="M524.83,119.87 L531.55,115.21" id="Shape"></path>
            <path d="M523.2,131.86 L527.55,127.78" id="Shape"></path>
            <path d="M524.83,119.87 L534.79,119.87" id="Shape"></path>
            <path d="M523.2,131.86 L528.95,131.86" id="Shape"></path>
            <path d="M556.42,119.87 L546.46,119.87" id="Shape"></path>
            <path d="M558.05,131.86 L552.3,131.86" id="Shape"></path>
            <path d="M552.83,93.59 L528.42,93.59" id="Shape"></path>
            <path d="M554.78,107.88 L529.89,82.76" id="Shape"></path>
            <path d="M536.06,88.98 L529.04,88.98" id="Shape"></path>
            <path d="M536.06,88.98 L528.42,93.59" id="Shape"></path>
            <path d="M536.06,98.2 L527.79,98.2" id="Shape"></path>
            <path d="M536.06,98.2 L528.42,93.59" id="Shape"></path>
            <path d="M526.47,107.88 L551.36,82.76" id="Shape"></path>
            <path d="M551.36,82.76 L540.62,71.92" id="Shape"></path>
            <path d="M529.89,82.76 L540.62,71.92" id="Shape"></path>
            <path d="M549.88,71.92 L531.37,71.92" id="Shape"></path>
            <path d="M545.19,88.98 L552.2,88.98" id="Shape"></path>
            <path d="M545.19,88.98 L552.83,93.59" id="Shape"></path>
            <path d="M545.19,98.2 L553.46,98.2" id="Shape"></path>
            <path d="M545.19,98.2 L552.83,93.59" id="Shape"></path>
            <path d="M530.89,75.47 L550.36,75.47" id="Shape"></path>
            <path d="M549.88,71.92 L544.14,75.47" id="Shape"></path>
            <path d="M531.37,71.92 L537.11,75.47" id="Shape"></path>
            <path d="M549.88,71.92 L567.76,0.08" id="Shape"></path>
            <path d="M551.94,63.65 L529.31,63.65" id="Shape"></path>
            <path d="M549.88,71.92 L540.62,63.65" id="Shape"></path>
            <path d="M531.37,71.92 L513.48,0.08" id="Shape"></path>
            <path d="M531.37,71.92 L540.62,63.65" id="Shape"></path>
            <path d="M557.69,40.54 L540.62,63.65" id="Shape"></path>
            <path d="M567.76,0.08 L554.36,18.23" id="Shape"></path>
            <path d="M557.69,40.54 L554.36,18.23" id="Shape"></path>
            <path d="M518,18.23 L563.25,18.23" id="Shape"></path>
            <path d="M516.3,11.41 L564.94,11.41" id="Shape"></path>
            <path d="M581.7,18.23 L564.94,11.41" id="Shape"></path>
            <path d="M564.94,11.41 L562.62,7.05" id="Shape"></path>
            <path d="M562.62,7.05 L566.34,5.81" id="Shape"></path>
            <path d="M563.25,18.23 L568.67,12.92" id="Shape"></path>
            <path d="M568.67,12.92 L571.42,18.23" id="Shape"></path>
            <path d="M571.42,18.23 L573.88,15.04" id="Shape"></path>
            <path d="M573.88,15.04 L576.53,18.23" id="Shape"></path>
            <path d="M563.25,18.23 L559.4,11.41" id="Shape"></path>
            <path d="M554.3,18.23 L549.74,11.41" id="Shape"></path>
            <path d="M554.36,18.23 L561.95,23.45" id="Shape"></path>
            <path d="M561.95,23.45 L555.63,26.7" id="Shape"></path>
            <path d="M555.63,26.7 L560.22,30.39" id="Shape"></path>
            <path d="M560.22,30.39 L556.69,33.84" id="Shape"></path>
            <path d="M556.69,33.84 L558.82,36" id="Shape"></path>
            <path d="M540.62,63.65 L553.5,57.37" id="Shape"></path>
            <path d="M553.5,57.37 L548.52,52.96" id="Shape"></path>
            <path d="M548.52,52.96 L555.69,48.56" id="Shape"></path>
            <path d="M555.69,48.56 L553.57,46.12" id="Shape"></path>
            <path d="M553.57,46.12 L556.3,46.12" id="Shape"></path>
            <path d="M523.56,40.54 L540.62,63.65" id="Shape"></path>
            <path d="M513.48,0.08 L526.89,18.23" id="Shape"></path>
            <path d="M523.56,40.54 L526.89,18.23" id="Shape"></path>
            <path d="M516.3,11.41 L518.63,7.05" id="Shape"></path>
            <path d="M518.63,7.05 L514.91,5.81" id="Shape"></path>
            <path d="M518,18.23 L521.85,11.41" id="Shape"></path>
            <path d="M526.89,18.23 L519.3,23.45" id="Shape"></path>
            <path d="M519.3,23.45 L525.62,26.7" id="Shape"></path>
            <path d="M525.62,26.7 L521.03,30.39" id="Shape"></path>
            <path d="M521.03,30.39 L524.56,33.84" id="Shape"></path>
            <path d="M524.56,33.84 L522.43,36" id="Shape"></path>
            <path d="M540.62,63.65 L527.75,57.37" id="Shape"></path>
            <path d="M527.75,57.37 L532.73,52.96" id="Shape"></path>
            <path d="M532.73,52.96 L525.56,48.56" id="Shape"></path>
            <path d="M525.56,48.56 L527.68,46.12" id="Shape"></path>
            <path d="M527.68,46.12 L524.95,46.12" id="Shape"></path>
            <path d="M563.25,18.23 L581.7,18.23" id="Shape"></path>
            <path d="M499.55,18.23 L499.55,21.96" id="Shape"></path>
            <path d="M497.86,22.63 L498.06,22.94 M498.06,22.94 L498.59,23.18 M498.59,23.18 L499.35,23.29 M499.35,23.29 L500.15,23.25 M500.15,23.25 L500.81,23.07 M500.81,23.07 L501.19,22.79 M501.19,22.79 L501.19,22.47 M501.19,22.47 L500.81,22.18 M500.81,22.18 L500.15,22 M500.15,22 L499.35,21.96 M499.35,21.96 L498.59,22.08 M498.59,22.08 L498.06,22.32 M498.06,22.32 L497.86,22.63" id="Shape"></path>
            <path d="M497.86,23.97 L498.06,24.28 M498.06,24.28 L498.59,24.52 M498.59,24.52 L499.35,24.63 M499.35,24.63 L500.15,24.59 M500.15,24.59 L500.81,24.41 M500.81,24.41 L501.19,24.13 M501.19,24.13 L501.19,23.81 M501.19,23.81 L500.81,23.52 M500.81,23.52 L500.15,23.34 M500.15,23.34 L499.35,23.3 M499.35,23.3 L498.59,23.42 M498.59,23.42 L498.06,23.66 M498.06,23.66 L497.86,23.97" id="Shape"></path>
            <path d="M497.86,25.3 L498.06,25.61 M498.06,25.61 L498.59,25.85 M498.59,25.85 L499.35,25.97 M499.35,25.97 L500.15,25.93 M500.15,25.93 L500.81,25.75 M500.81,25.75 L501.19,25.46 M501.19,25.46 L501.19,25.14 M501.19,25.14 L500.81,24.86 M500.81,24.86 L500.15,24.68 M500.15,24.68 L499.35,24.64 M499.35,24.64 L498.59,24.75 M498.59,24.75 L498.06,24.99 M498.06,24.99 L497.86,25.3" id="Shape"></path>
            <path d="M497.86,26.64 L498.06,26.95 M498.06,26.95 L498.59,27.19 M498.59,27.19 L499.35,27.31 M499.35,27.31 L500.15,27.27 M500.15,27.27 L500.81,27.09 M500.81,27.09 L501.19,26.8 M501.19,26.8 L501.19,26.48 M501.19,26.48 L500.81,26.2 M500.81,26.2 L500.15,26.02 M500.15,26.02 L499.35,25.98 M499.35,25.98 L498.59,26.09 M498.59,26.09 L498.06,26.33 M498.06,26.33 L497.86,26.64" id="Shape"></path>
            <path d="M497.86,27.98 L498.06,28.29 M498.06,28.29 L498.59,28.53 M498.59,28.53 L499.35,28.64 M499.35,28.64 L500.15,28.6 M500.15,28.6 L500.81,28.42 M500.81,28.42 L501.19,28.14 M501.19,28.14 L501.19,27.82 M501.19,27.82 L500.81,27.54 M500.81,27.54 L500.15,27.35 M500.15,27.35 L499.35,27.32 M499.35,27.32 L498.59,27.43 M498.59,27.43 L498.06,27.67 M498.06,27.67 L497.86,27.98" id="Shape"></path>
            <path d="M499.55,28.65 L499.55,31.93" id="Shape"></path>
            <path d="M498.57,32.91 L498.75,32.33 M498.75,32.33 L499.25,31.98 M499.25,31.98 L499.85,31.98 M499.85,31.98 L500.35,32.33 M500.35,32.33 L500.53,32.91 M500.53,32.91 L500.35,33.49 M500.35,33.49 L499.85,33.85 M499.85,33.85 L499.25,33.85 M499.25,33.85 L498.75,33.49 M498.75,33.49 L498.57,32.91" id="Shape"></path>
            <path d="M499.55,18.23 L516.3,11.41" id="Shape"></path>
            <path d="M518,18.23 L512.58,12.92" id="Shape"></path>
            <path d="M512.58,12.92 L509.83,18.23" id="Shape"></path>
            <path d="M509.83,18.23 L507.37,15.04" id="Shape"></path>
            <path d="M507.37,15.04 L504.72,18.23" id="Shape"></path>
            <path d="M518,18.23 L499.55,18.23" id="Shape"></path>
            <path d="M541.47,33.42 L546.27,36.16 M546.27,36.16 L551.23,38.61 M551.23,38.61 L556.33,40.76 M556.33,40.76 L561.55,42.6 M561.55,42.6 L566.87,44.12 M566.87,44.12 L572.27,45.32 M572.27,45.32 L577.73,46.19 M577.73,46.19 L583.24,46.73 M583.24,46.73 L588.76,46.95 M588.76,46.95 L594.29,46.82" id="Shape"></path>
            <path d="M500.39,33.42 L507.01,36.92 M507.01,36.92 L513.8,40.09 M513.8,40.09 L520.72,42.94 M520.72,42.94 L527.77,45.45 M527.77,45.45 L534.94,47.63 M534.94,47.63 L542.2,49.46 M542.2,49.46 L549.54,50.94 M549.54,50.94 L556.94,52.07 M556.94,52.07 L564.39,52.84 M564.39,52.84 L571.87,53.26 M571.87,53.26 L579.35,53.33 M579.35,53.33 L586.84,53.03 M586.84,53.03 L594.29,52.38" id="Shape"></path>
            <path d="M414.89,82.79 L414.38,86.77 M414.38,86.77 L414.15,90.77 M414.15,90.77 L414.2,94.77 M414.2,94.77 L414.54,98.76 M414.54,98.76 L415.16,102.72" id="Shape"></path>
            <path d="M453.96,82.79 L453.45,86.77 M453.45,86.77 L453.22,90.77 M453.22,90.77 L453.28,94.77 M453.28,94.77 L453.61,98.76 M453.61,98.76 L454.23,102.72" id="Shape"></path>
            <path d="M545.18,18.23 L549.74,11.41" id="Shape"></path>
            <path d="M545.18,18.23 L540.61,11.41" id="Shape"></path>
            <path d="M536.05,18.23 L540.61,11.41" id="Shape"></path>
            <path d="M536.05,18.23 L531.49,11.41" id="Shape"></path>
            <path d="M526.92,18.23 L531.49,11.41" id="Shape"></path>
        </g>
    </g>
</svg>