<?xml version="1.0" encoding="UTF-8"?>
<svg width="595px" height="159px" viewBox="0 0 595 159" version="1.1" xmlns="http://www.w3.org/2000/svg" xmlns:xlink="http://www.w3.org/1999/xlink">
    <!-- Generator: Sketch 50.1 (55044) - http://www.bohemiancoding.com/sketch -->
    <title>Solar</title>
    <desc>Created with Sketch.</desc>
    <defs></defs>
    <g id="Page-1" stroke="none" stroke-width="1" fill="none" fill-rule="evenodd">
        <g id="Solar" transform="translate(1.000000, 0.000000)" stroke="#000000" stroke-width="0.5">
            <path d="M62.18,158.18 L146.64,158.18" id="Shape"></path>
            <path d="M146.64,158.18 L146.64,148.25" id="Shape"></path>
            <path d="M141.09,148.25 L162.13,148.25" id="Shape"></path>
            <path d="M231.1,158.18 L156.58,158.18" id="Shape"></path>
            <path d="M156.58,158.18 L156.58,148.25" id="Shape"></path>
            <path d="M162.13,148.25 L162.13,118.24" id="Shape"></path>
            <path d="M141.09,118.24 L162.13,118.24" id="Shape"></path>
            <path d="M148.5,132.75 L148.12,131.86 M148.12,131.86 L147.43,131.17 M147.43,131.17 L146.54,130.81 M146.54,130.81 L145.57,130.81 M145.57,130.81 L144.68,131.18 M144.68,131.18 L144,131.87 M144,131.87 L143.63,132.76 M143.63,132.76 L143.63,133.73 M143.63,133.73 L144,134.62 M144,134.62 L144.68,135.31 M144.68,135.31 L145.57,135.68 M145.57,135.68 L146.54,135.68 M146.54,135.68 L147.43,135.32 M147.43,135.32 L148.12,134.63 M148.12,134.63 L148.5,133.74" id="Shape"></path>
            <path d="M146.06,132.75 L151.03,132.75" id="Shape"></path>
            <path d="M151.03,132.75 L151.03,133.74" id="Shape"></path>
            <path d="M151.03,133.74 L146.06,133.74" id="Shape"></path>
            <path d="M146.06,133.74 L146.06,132.75" id="Shape"></path>
            <path d="M231.1,158.18 L231.1,148.25" id="Shape"></path>
            <path d="M315.56,158.18 L241.04,158.18" id="Shape"></path>
            <path d="M241.04,158.18 L241.04,148.25" id="Shape"></path>
            <path d="M325.5,158.18 L386.59,158.18" id="Shape"></path>
            <path d="M386.59,158.18 L386.59,148.25" id="Shape"></path>
            <path d="M325.5,158.18 L325.5,148.25" id="Shape"></path>
            <path d="M315.56,158.18 L315.56,148.25" id="Shape"></path>
            <path d="M62.18,158.18 L62.18,148.25" id="Shape"></path>
            <path d="M18.84,148.25 L105.53,148.25" id="Shape"></path>
            <path d="M105.53,148.25 L105.53,116.19" id="Shape"></path>
            <path d="M191.36,148.25 L265.88,148.25" id="Shape"></path>
            <path d="M191.36,148.25 L191.36,93.73" id="Shape"></path>
            <path d="M206.26,148.25 L206.26,96.35" id="Shape"></path>
            <path d="M236.07,148.25 L236.07,96.35" id="Shape"></path>
            <path d="M265.88,148.25 L265.88,93.73" id="Shape"></path>
            <path d="M191.36,93.73 L265.88,93.73" id="Shape"></path>
            <path d="M232.68,117.76 L232.68,124.22" id="Shape"></path>
            <path d="M232.68,124.22 L231.39,124.22" id="Shape"></path>
            <path d="M231.39,124.22 L231.39,117.76" id="Shape"></path>
            <path d="M231.39,117.76 L232.68,117.76" id="Shape"></path>
            <path d="M191.36,140.86 L265.88,140.86" id="Shape"></path>
            <path d="M191.36,96.35 L265.88,96.35" id="Shape"></path>
            <path d="M262.49,117.76 L262.49,124.22" id="Shape"></path>
            <path d="M262.49,124.22 L261.2,124.22" id="Shape"></path>
            <path d="M261.2,124.22 L261.2,117.76" id="Shape"></path>
            <path d="M261.2,117.76 L262.49,117.76" id="Shape"></path>
            <path d="M295.69,148.25 L345.37,148.25" id="Shape"></path>
            <path d="M295.69,148.25 L295.69,97.71" id="Shape"></path>
            <path d="M345.37,148.25 L345.37,97.71" id="Shape"></path>
            <path d="M295.69,97.71 L345.37,97.71" id="Shape"></path>
            <path d="M300.79,143.1 L318.15,143.1" id="Shape"></path>
            <path d="M322.91,143.1 L340.27,143.1" id="Shape"></path>
            <path d="M300.79,143.1 L300.79,108.18" id="Shape"></path>
            <path d="M340.27,143.1 L340.27,108.18" id="Shape"></path>
            <path d="M300.79,108.18 L318.15,108.18" id="Shape"></path>
            <path d="M322.91,108.18 L340.27,108.18" id="Shape"></path>
            <path d="M322.91,143.1 L322.91,108.18" id="Shape"></path>
            <path d="M318.15,143.1 L318.15,108.18" id="Shape"></path>
            <path d="M312.75,118.25 L306.19,118.25" id="Shape"></path>
            <path d="M306.19,118.25 L306.19,119.56" id="Shape"></path>
            <path d="M306.19,119.56 L312.75,119.56" id="Shape"></path>
            <path d="M312.75,119.56 L312.75,118.25" id="Shape"></path>
            <path d="M141.09,148.25 L141.09,118.24" id="Shape"></path>
            <path d="M88.35,124.2 L122.71,108.18" id="Shape"></path>
            <path d="M87.68,122.76 L122.04,106.74" id="Shape"></path>
            <path d="M87.68,122.76 L88.35,124.2" id="Shape"></path>
            <path d="M122.04,106.74 L122.71,108.18" id="Shape"></path>
            <path d="M62.18,148.25 L62.18,116.19" id="Shape"></path>
            <path d="M18.84,148.25 L18.84,116.19" id="Shape"></path>
            <path d="M386.54,88.49 L386.54,54.47" id="Shape"></path>
            <path d="M394.35,88.49 L394.35,54.47" id="Shape"></path>
            <path d="M391.59,88.49 L394.35,85.73" id="Shape"></path>
            <path d="M394.35,85.73 L386.54,77.91" id="Shape"></path>
            <path d="M386.54,77.91 L394.35,70.1" id="Shape"></path>
            <path d="M394.35,70.1 L386.54,62.28" id="Shape"></path>
            <path d="M386.54,62.28 L394.35,54.47" id="Shape"></path>
            <path d="M386.54,148.25 L480.32,148.25" id="Shape"></path>
            <path d="M386.54,54.47 L394.35,54.47" id="Shape"></path>
            <path d="M386.54,54.47 L480.32,54.47" id="Shape"></path>
            <path d="M386.54,62.28 L480.32,62.28" id="Shape"></path>
            <path d="M386.54,62.28 L394.35,54.47" id="Shape"></path>
            <path d="M394.35,54.47 L402.17,62.28" id="Shape"></path>
            <path d="M402.17,62.28 L409.98,54.47" id="Shape"></path>
            <path d="M409.98,54.47 L417.8,62.28" id="Shape"></path>
            <path d="M417.8,62.28 L425.61,54.47" id="Shape"></path>
            <path d="M425.61,54.47 L433.43,62.28" id="Shape"></path>
            <path d="M433.43,62.28 L441.24,54.47" id="Shape"></path>
            <path d="M441.24,54.47 L449.06,62.28" id="Shape"></path>
            <path d="M449.06,62.28 L456.87,54.47" id="Shape"></path>
            <path d="M456.87,54.47 L464.69,62.28" id="Shape"></path>
            <path d="M464.69,62.28 L472.5,54.47" id="Shape"></path>
            <path d="M472.5,54.47 L480.32,62.28" id="Shape"></path>
            <path d="M386.54,54.47 L386.54,62.28" id="Shape"></path>
            <path d="M480.32,54.47 L480.32,62.28" id="Shape"></path>
            <path d="M480.32,148.25 L480.32,54.47" id="Shape"></path>
            <path d="M472.5,148.25 L472.5,54.47" id="Shape"></path>
            <path d="M472.5,148.25 L480.32,140.43" id="Shape"></path>
            <path d="M480.32,140.43 L472.5,132.62" id="Shape"></path>
            <path d="M472.5,132.62 L480.32,124.8" id="Shape"></path>
            <path d="M480.32,124.8 L472.5,116.99" id="Shape"></path>
            <path d="M472.5,116.99 L480.32,109.17" id="Shape"></path>
            <path d="M480.32,109.17 L472.5,101.36" id="Shape"></path>
            <path d="M472.5,101.36 L480.32,93.54" id="Shape"></path>
            <path d="M480.32,93.54 L472.5,85.73" id="Shape"></path>
            <path d="M472.5,85.73 L480.32,77.91" id="Shape"></path>
            <path d="M480.32,77.91 L472.5,70.1" id="Shape"></path>
            <path d="M472.5,70.1 L480.32,62.28" id="Shape"></path>
            <path d="M480.32,62.28 L472.5,54.47" id="Shape"></path>
            <path d="M433.43,82.79 L439.57,83.85 M439.57,83.85 L445.77,84.51 M445.77,84.51 L452.01,84.78 M452.01,84.78 L458.24,84.65 M458.24,84.65 L464.46,84.12 M464.46,84.12 L470.63,83.2 M470.63,83.2 L476.72,81.89 M476.72,81.89 L482.73,80.19 M482.73,80.19 L488.61,78.12 M488.61,78.12 L494.35,75.67 M494.35,75.67 L499.92,72.87 M499.92,72.87 L505.3,69.72 M505.3,69.72 L510.47,66.23 M510.47,66.23 L515.41,62.42 M515.41,62.42 L520.1,58.31 M520.1,58.31 L524.52,53.9 M524.52,53.9 L528.64,49.23 M528.64,49.23 L532.47,44.3 M532.47,44.3 L535.97,39.14 M535.97,39.14 L539.13,33.76" id="Shape"></path>
            <path d="M413.89,82.79 L419.15,83.67 M419.15,83.67 L424.46,84.16 M424.46,84.16 L429.8,84.27 M429.8,84.27 L435.12,83.99 M435.12,83.99 L440.42,83.32 M440.42,83.32 L445.65,82.27 M445.65,82.27 L450.79,80.84 M450.79,80.84 L455.81,79.04 M455.81,79.04 L460.69,76.88 M460.69,76.88 L465.4,74.38 M465.4,74.38 L469.91,71.54 M469.91,71.54 L474.21,68.38 M474.21,68.38 L478.27,64.91 M478.27,64.91 L482.06,61.16 M482.06,61.16 L485.57,57.14 M485.57,57.14 L488.79,52.88 M488.79,52.88 L491.68,48.4 M491.68,48.4 L494.24,43.72 M494.24,43.72 L496.45,38.87 M496.45,38.87 L498.31,33.86" id="Shape"></path>
            <path d="M413.89,62.28 L413.89,69.56" id="Shape"></path>
            <path d="M415.76,70.3 L415.57,70.62 M415.57,70.62 L415.05,70.88 M415.05,70.88 L414.3,71.02 M414.3,71.02 L413.47,71.02 M413.47,71.02 L412.72,70.88 M412.72,70.88 L412.2,70.62 M412.2,70.62 L412.02,70.3 M412.02,70.3 L412.2,69.98 M412.2,69.98 L412.72,69.72 M412.72,69.72 L413.47,69.57 M413.47,69.57 L414.3,69.57 M414.3,69.57 L415.05,69.72 M415.05,69.72 L415.57,69.98 M415.57,69.98 L415.76,70.3" id="Shape"></path>
            <path d="M415.76,71.78 L415.57,72.1 M415.57,72.1 L415.05,72.36 M415.05,72.36 L414.3,72.5 M414.3,72.5 L413.47,72.5 M413.47,72.5 L412.72,72.36 M412.72,72.36 L412.2,72.1 M412.2,72.1 L412.02,71.78 M412.02,71.78 L412.2,71.46 M412.2,71.46 L412.72,71.2 M412.72,71.2 L413.47,71.06 M413.47,71.06 L414.3,71.06 M414.3,71.06 L415.05,71.2 M415.05,71.2 L415.57,71.46 M415.57,71.46 L415.76,71.78" id="Shape"></path>
            <path d="M415.76,73.26 L415.57,73.59 M415.57,73.59 L415.05,73.84 M415.05,73.84 L414.3,73.99 M414.3,73.99 L413.47,73.99 M413.47,73.99 L412.72,73.84 M412.72,73.84 L412.2,73.59 M412.2,73.59 L412.02,73.26 M412.02,73.26 L412.2,72.94 M412.2,72.94 L412.72,72.68 M412.72,72.68 L413.47,72.54 M413.47,72.54 L414.3,72.54 M414.3,72.54 L415.05,72.68 M415.05,72.68 L415.57,72.94 M415.57,72.94 L415.76,73.26" id="Shape"></path>
            <path d="M415.76,74.75 L415.57,75.07 M415.57,75.07 L415.05,75.33 M415.05,75.33 L414.3,75.47 M414.3,75.47 L413.47,75.47 M413.47,75.47 L412.72,75.33 M412.72,75.33 L412.2,75.07 M412.2,75.07 L412.02,74.75 M412.02,74.75 L412.2,74.43 M412.2,74.43 L412.72,74.17 M412.72,74.17 L413.47,74.03 M413.47,74.03 L414.3,74.03 M414.3,74.03 L415.05,74.17 M415.05,74.17 L415.57,74.43 M415.57,74.43 L415.76,74.75" id="Shape"></path>
            <path d="M415.76,76.23 L415.57,76.55 M415.57,76.55 L415.05,76.81 M415.05,76.81 L414.3,76.96 M414.3,76.96 L413.47,76.96 M413.47,76.96 L412.72,76.81 M412.72,76.81 L412.2,76.55 M412.2,76.55 L412.02,76.23 M412.02,76.23 L412.2,75.91 M412.2,75.91 L412.72,75.65 M412.72,75.65 L413.47,75.51 M413.47,75.51 L414.3,75.51 M414.3,75.51 L415.05,75.65 M415.05,75.65 L415.57,75.91 M415.57,75.91 L415.76,76.23" id="Shape"></path>
            <path d="M413.89,76.97 L413.89,80.61" id="Shape"></path>
            <path d="M412.8,81.7 L412.97,81.11 M412.97,81.11 L413.43,80.71 M413.43,80.71 L414.04,80.62 M414.04,80.62 L414.6,80.88 M414.6,80.88 L414.93,81.4 M414.93,81.4 L414.93,82.01 M414.93,82.01 L414.6,82.53 M414.6,82.53 L414.04,82.78 M414.04,82.78 L413.43,82.7 M413.43,82.7 L412.97,82.29 M412.97,82.29 L412.8,81.7" id="Shape"></path>
            <path d="M413.02,103.92 L413.21,103.27 M413.21,103.27 L413.72,102.83 M413.72,102.83 L414.39,102.73 M414.39,102.73 L415,103.01 M415,103.01 L415.37,103.58 M415.37,103.58 L415.37,104.26 M415.37,104.26 L415,104.83 M415,104.83 L414.39,105.11 M414.39,105.11 L413.72,105.01 M413.72,105.01 L413.21,104.57 M413.21,104.57 L413.02,103.92" id="Shape"></path>
            <path d="M414.62,105.05 L414.62,109.05" id="Shape"></path>
            <path d="M413.82,105.05 L413.82,109.05" id="Shape"></path>
            <path d="M410.22,109.05 L418.22,109.05" id="Shape"></path>
            <path d="M410.22,110.25 L418.22,110.25" id="Shape"></path>
            <path d="M416.62,110.25 L416.62,133.45" id="Shape"></path>
            <path d="M411.82,110.25 L411.82,133.45" id="Shape"></path>
            <path d="M410.22,133.45 L418.22,133.45" id="Shape"></path>
            <path d="M409.02,134.66 L419.42,134.66" id="Shape"></path>
            <path d="M409.02,135.86 L419.42,135.86" id="Shape"></path>
            <path d="M418.22,109.05 L418.22,110.25" id="Shape"></path>
            <path d="M410.22,109.05 L410.22,110.25" id="Shape"></path>
            <path d="M418.22,133.45 L418.22,134.66" id="Shape"></path>
            <path d="M410.22,133.45 L410.22,134.66" id="Shape"></path>
            <path d="M419.42,134.66 L419.42,135.86" id="Shape"></path>
            <path d="M409.02,134.66 L409.02,135.86" id="Shape"></path>
            <path d="M410.22,135.86 L410.22,148.25" id="Shape"></path>
            <path d="M414.22,135.86 L414.22,148.25" id="Shape"></path>
            <path d="M418.22,135.86 L418.22,148.25" id="Shape"></path>
            <path d="M410.22,148.25 L414.22,135.86" id="Shape"></path>
            <path d="M414.22,148.25 L410.22,135.86" id="Shape"></path>
            <path d="M414.22,148.25 L418.22,135.86" id="Shape"></path>
            <path d="M418.22,148.25 L414.22,135.86" id="Shape"></path>
            <path d="M433.43,62.28 L433.43,69.56" id="Shape"></path>
            <path d="M435.29,70.3 L435.11,70.62 M435.11,70.62 L434.59,70.88 M434.59,70.88 L433.84,71.02 M433.84,71.02 L433.01,71.02 M433.01,71.02 L432.26,70.88 M432.26,70.88 L431.74,70.62 M431.74,70.62 L431.56,70.3 M431.56,70.3 L431.74,69.98 M431.74,69.98 L432.26,69.72 M432.26,69.72 L433.01,69.57 M433.01,69.57 L433.84,69.57 M433.84,69.57 L434.59,69.72 M434.59,69.72 L435.11,69.98 M435.11,69.98 L435.29,70.3" id="Shape"></path>
            <path d="M435.29,71.78 L435.11,72.1 M435.11,72.1 L434.59,72.36 M434.59,72.36 L433.84,72.5 M433.84,72.5 L433.01,72.5 M433.01,72.5 L432.26,72.36 M432.26,72.36 L431.74,72.1 M431.74,72.1 L431.56,71.78 M431.56,71.78 L431.74,71.46 M431.74,71.46 L432.26,71.2 M432.26,71.2 L433.01,71.06 M433.01,71.06 L433.84,71.06 M433.84,71.06 L434.59,71.2 M434.59,71.2 L435.11,71.46 M435.11,71.46 L435.29,71.78" id="Shape"></path>
            <path d="M435.29,73.26 L435.11,73.59 M435.11,73.59 L434.59,73.84 M434.59,73.84 L433.84,73.99 M433.84,73.99 L433.01,73.99 M433.01,73.99 L432.26,73.84 M432.26,73.84 L431.74,73.59 M431.74,73.59 L431.56,73.26 M431.56,73.26 L431.74,72.94 M431.74,72.94 L432.26,72.68 M432.26,72.68 L433.01,72.54 M433.01,72.54 L433.84,72.54 M433.84,72.54 L434.59,72.68 M434.59,72.68 L435.11,72.94 M435.11,72.94 L435.29,73.26" id="Shape"></path>
            <path d="M435.29,74.75 L435.11,75.07 M435.11,75.07 L434.59,75.33 M434.59,75.33 L433.84,75.47 M433.84,75.47 L433.01,75.47 M433.01,75.47 L432.26,75.33 M432.26,75.33 L431.74,75.07 M431.74,75.07 L431.56,74.75 M431.56,74.75 L431.74,74.43 M431.74,74.43 L432.26,74.17 M432.26,74.17 L433.01,74.03 M433.01,74.03 L433.84,74.03 M433.84,74.03 L434.59,74.17 M434.59,74.17 L435.11,74.43 M435.11,74.43 L435.29,74.75" id="Shape"></path>
            <path d="M435.29,76.23 L435.11,76.55 M435.11,76.55 L434.59,76.81 M434.59,76.81 L433.84,76.96 M433.84,76.96 L433.01,76.96 M433.01,76.96 L432.26,76.81 M432.26,76.81 L431.74,76.55 M431.74,76.55 L431.56,76.23 M431.56,76.23 L431.74,75.91 M431.74,75.91 L432.26,75.65 M432.26,75.65 L433.01,75.51 M433.01,75.51 L433.84,75.51 M433.84,75.51 L434.59,75.65 M434.59,75.65 L435.11,75.91 M435.11,75.91 L435.29,76.23" id="Shape"></path>
            <path d="M433.43,76.97 L433.43,80.61" id="Shape"></path>
            <path d="M432.33,81.7 L432.51,81.11 M432.51,81.11 L432.97,80.71 M432.97,80.71 L433.58,80.62 M433.58,80.62 L434.14,80.88 M434.14,80.88 L434.47,81.4 M434.47,81.4 L434.47,82.01 M434.47,82.01 L434.14,82.53 M434.14,82.53 L433.58,82.78 M433.58,82.78 L432.97,82.7 M432.97,82.7 L432.51,82.29 M432.51,82.29 L432.33,81.7" id="Shape"></path>
            <path d="M432.56,103.92 L432.75,103.27 M432.75,103.27 L433.26,102.83 M433.26,102.83 L433.93,102.73 M433.93,102.73 L434.54,103.01 M434.54,103.01 L434.91,103.58 M434.91,103.58 L434.91,104.26 M434.91,104.26 L434.54,104.83 M434.54,104.83 L433.93,105.11 M433.93,105.11 L433.26,105.01 M433.26,105.01 L432.75,104.57 M432.75,104.57 L432.56,103.92" id="Shape"></path>
            <path d="M434.16,105.05 L434.16,109.05" id="Shape"></path>
            <path d="M433.36,105.05 L433.36,109.05" id="Shape"></path>
            <path d="M429.76,109.05 L437.76,109.05" id="Shape"></path>
            <path d="M429.76,110.25 L437.76,110.25" id="Shape"></path>
            <path d="M436.16,110.25 L436.16,133.45" id="Shape"></path>
            <path d="M431.36,110.25 L431.36,133.45" id="Shape"></path>
            <path d="M429.76,133.45 L437.76,133.45" id="Shape"></path>
            <path d="M428.56,134.66 L438.96,134.66" id="Shape"></path>
            <path d="M428.56,135.86 L438.96,135.86" id="Shape"></path>
            <path d="M437.76,109.05 L437.76,110.25" id="Shape"></path>
            <path d="M429.76,109.05 L429.76,110.25" id="Shape"></path>
            <path d="M437.76,133.45 L437.76,134.66" id="Shape"></path>
            <path d="M429.76,133.45 L429.76,134.66" id="Shape"></path>
            <path d="M438.96,134.66 L438.96,135.86" id="Shape"></path>
            <path d="M428.56,134.66 L428.56,135.86" id="Shape"></path>
            <path d="M429.76,135.86 L429.76,148.25" id="Shape"></path>
            <path d="M433.76,135.86 L433.76,148.25" id="Shape"></path>
            <path d="M437.76,135.86 L437.76,148.25" id="Shape"></path>
            <path d="M429.76,148.25 L433.76,135.86" id="Shape"></path>
            <path d="M433.76,148.25 L429.76,135.86" id="Shape"></path>
            <path d="M433.76,148.25 L437.76,135.86" id="Shape"></path>
            <path d="M437.76,148.25 L433.76,135.86" id="Shape"></path>
            <path d="M548.88,71.92 L559.29,148.25" id="Shape"></path>
            <path d="M559.29,148.25 L539.62,107.88" id="Shape"></path>
            <path d="M580.7,18.23 L580.7,21.96" id="Shape"></path>
            <path d="M582.38,22.63 L582.19,22.94 M582.19,22.94 L581.66,23.18 M581.66,23.18 L580.9,23.29 M580.9,23.29 L580.1,23.25 M580.1,23.25 L579.44,23.07 M579.44,23.07 L579.06,22.79 M579.06,22.79 L579.06,22.47 M579.06,22.47 L579.44,22.18 M579.44,22.18 L580.1,22 M580.1,22 L580.9,21.96 M580.9,21.96 L581.66,22.08 M581.66,22.08 L582.19,22.32 M582.19,22.32 L582.38,22.63" id="Shape"></path>
            <path d="M582.38,23.97 L582.19,24.28 M582.19,24.28 L581.66,24.52 M581.66,24.52 L580.9,24.63 M580.9,24.63 L580.1,24.59 M580.1,24.59 L579.44,24.41 M579.44,24.41 L579.06,24.13 M579.06,24.13 L579.06,23.81 M579.06,23.81 L579.44,23.52 M579.44,23.52 L580.1,23.34 M580.1,23.34 L580.9,23.3 M580.9,23.3 L581.66,23.42 M581.66,23.42 L582.19,23.66 M582.19,23.66 L582.38,23.97" id="Shape"></path>
            <path d="M582.38,25.3 L582.19,25.61 M582.19,25.61 L581.66,25.85 M581.66,25.85 L580.9,25.97 M580.9,25.97 L580.1,25.93 M580.1,25.93 L579.44,25.75 M579.44,25.75 L579.06,25.46 M579.06,25.46 L579.06,25.14 M579.06,25.14 L579.44,24.86 M579.44,24.86 L580.1,24.68 M580.1,24.68 L580.9,24.64 M580.9,24.64 L581.66,24.75 M581.66,24.75 L582.19,24.99 M582.19,24.99 L582.38,25.3" id="Shape"></path>
            <path d="M582.38,26.64 L582.19,26.95 M582.19,26.95 L581.66,27.19 M581.66,27.19 L580.9,27.31 M580.9,27.31 L580.1,27.27 M580.1,27.27 L579.44,27.09 M579.44,27.09 L579.06,26.8 M579.06,26.8 L579.06,26.48 M579.06,26.48 L579.44,26.2 M579.44,26.2 L580.1,26.02 M580.1,26.02 L580.9,25.98 M580.9,25.98 L581.66,26.09 M581.66,26.09 L582.19,26.33 M582.19,26.33 L582.38,26.64" id="Shape"></path>
            <path d="M582.38,27.98 L582.19,28.29 M582.19,28.29 L581.66,28.53 M581.66,28.53 L580.9,28.64 M580.9,28.64 L580.1,28.6 M580.1,28.6 L579.44,28.42 M579.44,28.42 L579.06,28.14 M579.06,28.14 L579.06,27.82 M579.06,27.82 L579.44,27.54 M579.44,27.54 L580.1,27.35 M580.1,27.35 L580.9,27.32 M580.9,27.32 L581.66,27.43 M581.66,27.43 L582.19,27.67 M582.19,27.67 L582.38,27.98" id="Shape"></path>
            <path d="M580.7,28.65 L580.7,31.93" id="Shape"></path>
            <path d="M579.71,32.91 L579.9,32.33 M579.9,32.33 L580.39,31.98 M580.39,31.98 L581,31.98 M581,31.98 L581.49,32.33 M581.49,32.33 L581.68,32.91 M581.68,32.91 L581.49,33.49 M581.49,33.49 L581,33.85 M581,33.85 L580.39,33.85 M580.39,33.85 L579.9,33.49 M579.9,33.49 L579.71,32.91" id="Shape"></path>
            <path d="M539.62,18.23 L539.62,21.96" id="Shape"></path>
            <path d="M541.31,22.63 L541.12,22.94 M541.12,22.94 L540.58,23.18 M540.58,23.18 L539.83,23.29 M539.83,23.29 L539.03,23.25 M539.03,23.25 L538.36,23.07 M538.36,23.07 L537.99,22.79 M537.99,22.79 L537.99,22.47 M537.99,22.47 L538.36,22.18 M538.36,22.18 L539.03,22 M539.03,22 L539.83,21.96 M539.83,21.96 L540.58,22.08 M540.58,22.08 L541.12,22.32 M541.12,22.32 L541.31,22.63" id="Shape"></path>
            <path d="M541.31,23.97 L541.12,24.28 M541.12,24.28 L540.58,24.52 M540.58,24.52 L539.83,24.63 M539.83,24.63 L539.03,24.59 M539.03,24.59 L538.36,24.41 M538.36,24.41 L537.99,24.13 M537.99,24.13 L537.99,23.81 M537.99,23.81 L538.36,23.52 M538.36,23.52 L539.03,23.34 M539.03,23.34 L539.83,23.3 M539.83,23.3 L540.58,23.42 M540.58,23.42 L541.12,23.66 M541.12,23.66 L541.31,23.97" id="Shape"></path>
            <path d="M541.31,25.3 L541.12,25.61 M541.12,25.61 L540.58,25.85 M540.58,25.85 L539.83,25.97 M539.83,25.97 L539.03,25.93 M539.03,25.93 L538.36,25.75 M538.36,25.75 L537.99,25.46 M537.99,25.46 L537.99,25.14 M537.99,25.14 L538.36,24.86 M538.36,24.86 L539.03,24.68 M539.03,24.68 L539.83,24.64 M539.83,24.64 L540.58,24.75 M540.58,24.75 L541.12,24.99 M541.12,24.99 L541.31,25.3" id="Shape"></path>
            <path d="M541.31,26.64 L541.12,26.95 M541.12,26.95 L540.58,27.19 M540.58,27.19 L539.83,27.31 M539.83,27.31 L539.03,27.27 M539.03,27.27 L538.36,27.09 M538.36,27.09 L537.99,26.8 M537.99,26.8 L537.99,26.48 M537.99,26.48 L538.36,26.2 M538.36,26.2 L539.03,26.02 M539.03,26.02 L539.83,25.98 M539.83,25.98 L540.58,26.09 M540.58,26.09 L541.12,26.33 M541.12,26.33 L541.31,26.64" id="Shape"></path>
            <path d="M541.31,27.98 L541.12,28.29 M541.12,28.29 L540.58,28.53 M540.58,28.53 L539.83,28.64 M539.83,28.64 L539.03,28.6 M539.03,28.6 L538.36,28.42 M538.36,28.42 L537.99,28.14 M537.99,28.14 L537.99,27.82 M537.99,27.82 L538.36,27.54 M538.36,27.54 L539.03,27.35 M539.03,27.35 L539.83,27.32 M539.83,27.32 L540.58,27.43 M540.58,27.43 L541.12,27.67 M541.12,27.67 L541.31,27.98" id="Shape"></path>
            <path d="M539.62,28.65 L539.62,31.93" id="Shape"></path>
            <path d="M538.64,32.91 L538.83,32.33 M538.83,32.33 L539.32,31.98 M539.32,31.98 L539.93,31.98 M539.93,31.98 L540.42,32.33 M540.42,32.33 L540.61,32.91 M540.61,32.91 L540.42,33.49 M540.42,33.49 L539.93,33.85 M539.93,33.85 L539.32,33.85 M539.32,33.85 L538.83,33.49 M538.83,33.49 L538.64,32.91" id="Shape"></path>
            <path d="M452.96,82.79 L459.4,84.39 M459.4,84.39 L465.93,85.61 M465.93,85.61 L472.51,86.44 M472.51,86.44 L479.13,86.89 M479.13,86.89 L485.77,86.95 M485.77,86.95 L492.4,86.62 M492.4,86.62 L499,85.9 M499,85.9 L505.54,84.8 M505.54,84.8 L512.01,83.32 M512.01,83.32 L518.38,81.46 M518.38,81.46 L524.63,79.24 M524.63,79.24 L530.75,76.65 M530.75,76.65 L536.7,73.71 M536.7,73.71 L542.46,70.43 M542.46,70.43 L548.03,66.82 M548.03,66.82 L553.37,62.88 M553.37,62.88 L558.48,58.64 M558.48,58.64 L563.33,54.11 M563.33,54.11 L567.91,49.31 M567.91,49.31 L572.19,44.24 M572.19,44.24 L576.18,38.93 M576.18,38.93 L579.85,33.4" id="Shape"></path>
            <path d="M452.96,62.28 L452.96,69.56" id="Shape"></path>
            <path d="M454.83,70.3 L454.65,70.62 M454.65,70.62 L454.13,70.88 M454.13,70.88 L453.38,71.02 M453.38,71.02 L452.55,71.02 M452.55,71.02 L451.8,70.88 M451.8,70.88 L451.28,70.62 M451.28,70.62 L451.09,70.3 M451.09,70.3 L451.28,69.98 M451.28,69.98 L451.8,69.72 M451.8,69.72 L452.55,69.57 M452.55,69.57 L453.38,69.57 M453.38,69.57 L454.13,69.72 M454.13,69.72 L454.65,69.98 M454.65,69.98 L454.83,70.3" id="Shape"></path>
            <path d="M454.83,71.78 L454.65,72.1 M454.65,72.1 L454.13,72.36 M454.13,72.36 L453.38,72.5 M453.38,72.5 L452.55,72.5 M452.55,72.5 L451.8,72.36 M451.8,72.36 L451.28,72.1 M451.28,72.1 L451.09,71.78 M451.09,71.78 L451.28,71.46 M451.28,71.46 L451.8,71.2 M451.8,71.2 L452.55,71.06 M452.55,71.06 L453.38,71.06 M453.38,71.06 L454.13,71.2 M454.13,71.2 L454.65,71.46 M454.65,71.46 L454.83,71.78" id="Shape"></path>
            <path d="M454.83,73.26 L454.65,73.59 M454.65,73.59 L454.13,73.84 M454.13,73.84 L453.38,73.99 M453.38,73.99 L452.55,73.99 M452.55,73.99 L451.8,73.84 M451.8,73.84 L451.28,73.59 M451.28,73.59 L451.09,73.26 M451.09,73.26 L451.28,72.94 M451.28,72.94 L451.8,72.68 M451.8,72.68 L452.55,72.54 M452.55,72.54 L453.38,72.54 M453.38,72.54 L454.13,72.68 M454.13,72.68 L454.65,72.94 M454.65,72.94 L454.83,73.26" id="Shape"></path>
            <path d="M454.83,74.75 L454.65,75.07 M454.65,75.07 L454.13,75.33 M454.13,75.33 L453.38,75.47 M453.38,75.47 L452.55,75.47 M452.55,75.47 L451.8,75.33 M451.8,75.33 L451.28,75.07 M451.28,75.07 L451.09,74.75 M451.09,74.75 L451.28,74.43 M451.28,74.43 L451.8,74.17 M451.8,74.17 L452.55,74.03 M452.55,74.03 L453.38,74.03 M453.38,74.03 L454.13,74.17 M454.13,74.17 L454.65,74.43 M454.65,74.43 L454.83,74.75" id="Shape"></path>
            <path d="M454.83,76.23 L454.65,76.55 M454.65,76.55 L454.13,76.81 M454.13,76.81 L453.38,76.96 M453.38,76.96 L452.55,76.96 M452.55,76.96 L451.8,76.81 M451.8,76.81 L451.28,76.55 M451.28,76.55 L451.09,76.23 M451.09,76.23 L451.28,75.91 M451.28,75.91 L451.8,75.65 M451.8,75.65 L452.55,75.51 M452.55,75.51 L453.38,75.51 M453.38,75.51 L454.13,75.65 M454.13,75.65 L454.65,75.91 M454.65,75.91 L454.83,76.23" id="Shape"></path>
            <path d="M452.96,76.97 L452.96,80.61" id="Shape"></path>
            <path d="M451.87,81.7 L452.04,81.11 M452.04,81.11 L452.51,80.71 M452.51,80.71 L453.12,80.62 M453.12,80.62 L453.68,80.88 M453.68,80.88 L454.01,81.4 M454.01,81.4 L454.01,82.01 M454.01,82.01 L453.68,82.53 M453.68,82.53 L453.12,82.78 M453.12,82.78 L452.51,82.7 M452.51,82.7 L452.04,82.29 M452.04,82.29 L451.87,81.7" id="Shape"></path>
            <path d="M452.09,103.92 L452.28,103.27 M452.28,103.27 L452.79,102.83 M452.79,102.83 L453.46,102.73 M453.46,102.73 L454.08,103.01 M454.08,103.01 L454.45,103.58 M454.45,103.58 L454.45,104.26 M454.45,104.26 L454.08,104.83 M454.08,104.83 L453.46,105.11 M453.46,105.11 L452.79,105.01 M452.79,105.01 L452.28,104.57 M452.28,104.57 L452.09,103.92" id="Shape"></path>
            <path d="M453.69,105.05 L453.69,109.05" id="Shape"></path>
            <path d="M452.89,105.05 L452.89,109.05" id="Shape"></path>
            <path d="M449.29,109.05 L457.29,109.05" id="Shape"></path>
            <path d="M449.29,110.25 L457.29,110.25" id="Shape"></path>
            <path d="M455.69,110.25 L455.69,133.45" id="Shape"></path>
            <path d="M450.89,110.25 L450.89,133.45" id="Shape"></path>
            <path d="M449.29,133.45 L457.29,133.45" id="Shape"></path>
            <path d="M448.09,134.66 L458.49,134.66" id="Shape"></path>
            <path d="M448.09,135.86 L458.49,135.86" id="Shape"></path>
            <path d="M457.29,109.05 L457.29,110.25" id="Shape"></path>
            <path d="M449.29,109.05 L449.29,110.25" id="Shape"></path>
            <path d="M457.29,133.45 L457.29,134.66" id="Shape"></path>
            <path d="M449.29,133.45 L449.29,134.66" id="Shape"></path>
            <path d="M458.49,134.66 L458.49,135.86" id="Shape"></path>
            <path d="M448.09,134.66 L448.09,135.86" id="Shape"></path>
            <path d="M449.29,135.86 L449.29,148.25" id="Shape"></path>
            <path d="M453.29,135.86 L453.29,148.25" id="Shape"></path>
            <path d="M457.29,135.86 L457.29,148.25" id="Shape"></path>
            <path d="M449.29,148.25 L453.29,135.86" id="Shape"></path>
            <path d="M453.29,148.25 L449.29,135.86" id="Shape"></path>
            <path d="M453.29,148.25 L457.29,135.86" id="Shape"></path>
            <path d="M457.29,148.25 L453.29,135.86" id="Shape"></path>
            <path d="M476.46,148.25 L593.29,148.25" id="Shape"></path>
            <path d="M581.54,33.42 L585.33,35.6 M585.33,35.6 L589.25,37.52 M589.25,37.52 L593.29,39.18" id="Shape"></path>
            <path d="M45,124.2 L79.37,108.18" id="Shape"></path>
            <path d="M44.33,122.76 L78.69,106.74" id="Shape"></path>
            <path d="M44.33,122.76 L45,124.2" id="Shape"></path>
            <path d="M78.69,106.74 L79.37,108.18" id="Shape"></path>
            <path d="M1.65,124.2 L36.02,108.18" id="Shape"></path>
            <path d="M0.98,122.76 L35.35,106.74" id="Shape"></path>
            <path d="M0.98,122.76 L1.65,124.2" id="Shape"></path>
            <path d="M35.35,106.74 L36.02,108.18" id="Shape"></path>
            <path d="M13.87,54.34 L13.87,75.14" id="Shape"></path>
            <path d="M24.54,51.97 L33.33,70.83" id="Shape"></path>
            <path d="M33.2,45.32 L49.14,58.7" id="Shape"></path>
            <path d="M0.18,29.1 L0.38,26.79 M0.38,26.79 L0.96,24.54 M0.96,24.54 L1.92,22.42 M1.92,22.42 L3.22,20.5 M3.22,20.5 L4.83,18.82 M4.83,18.82 L6.69,17.44 M6.69,17.44 L8.77,16.4 M8.77,16.4 L10.99,15.72 M10.99,15.72 L13.29,15.42 M13.29,15.42 L15.61,15.52 M15.61,15.52 L17.88,16.01 M17.88,16.01 L20.03,16.88 M20.03,16.88 L22.01,18.09 M22.01,18.09 L23.75,19.63 M23.75,19.63 L25.21,21.43 M25.21,21.43 L26.34,23.46 M26.34,23.46 L27.11,25.65 M27.11,25.65 L27.51,27.94 M27.51,27.94 L27.51,30.26 M27.51,30.26 L27.11,32.55 M27.11,32.55 L26.34,34.74 M26.34,34.74 L25.21,36.76 M25.21,36.76 L23.75,38.57 M23.75,38.57 L22.01,40.1 M22.01,40.1 L20.03,41.32 M20.03,41.32 L17.88,42.19 M17.88,42.19 L15.61,42.68 M15.61,42.68 L13.29,42.77 M13.29,42.77 L10.99,42.48 M10.99,42.48 L8.77,41.8 M8.77,41.8 L6.69,40.75 M6.69,40.75 L4.83,39.37 M4.83,39.37 L3.22,37.7 M3.22,37.7 L1.92,35.77 M1.92,35.77 L0.96,33.66 M0.96,33.66 L0.38,31.41 M0.38,31.41 L0.18,29.1" id="Shape"></path>
            <path d="M394.35,54.47 L387.65,49.99" id="Shape"></path>
            <path d="M387.65,49.99 L391.9,44.67" id="Shape"></path>
            <path d="M386.54,54.47 L390.44,38.84" id="Shape"></path>
            <path d="M390.44,38.84 L394.35,54.47" id="Shape"></path>
            <path d="M390.44,38.84 L390.44,31.38" id="Shape"></path>
            <path d="M472.5,54.47 L479.2,49.99" id="Shape"></path>
            <path d="M479.2,49.99 L474.95,44.67" id="Shape"></path>
            <path d="M480.32,54.47 L476.41,38.84" id="Shape"></path>
            <path d="M476.41,38.84 L472.5,54.47" id="Shape"></path>
            <path d="M476.41,38.84 L476.41,31.38" id="Shape"></path>
            <path d="M412.81,130.66 L415.63,130.66" id="Shape"></path>
            <path d="M415.63,130.66 L415.63,132.46" id="Shape"></path>
            <path d="M412.81,132.46 L415.63,132.46" id="Shape"></path>
            <path d="M412.81,130.66 L412.81,132.46" id="Shape"></path>
            <path d="M412.81,127.87 L415.63,127.87" id="Shape"></path>
            <path d="M415.63,127.87 L415.63,129.67" id="Shape"></path>
            <path d="M412.81,129.67 L415.63,129.67" id="Shape"></path>
            <path d="M412.81,127.87 L412.81,129.67" id="Shape"></path>
            <path d="M412.81,125.07 L415.63,125.07" id="Shape"></path>
            <path d="M415.63,125.07 L415.63,126.87" id="Shape"></path>
            <path d="M412.81,126.87 L415.63,126.87" id="Shape"></path>
            <path d="M412.81,125.07 L412.81,126.87" id="Shape"></path>
            <path d="M412.81,122.28 L415.63,122.28" id="Shape"></path>
            <path d="M415.63,122.28 L415.63,124.08" id="Shape"></path>
            <path d="M412.81,124.08 L415.63,124.08" id="Shape"></path>
            <path d="M412.81,122.28 L412.81,124.08" id="Shape"></path>
            <path d="M412.81,119.49 L415.63,119.49" id="Shape"></path>
            <path d="M415.63,119.49 L415.63,121.29" id="Shape"></path>
            <path d="M412.81,121.29 L415.63,121.29" id="Shape"></path>
            <path d="M412.81,119.49 L412.81,121.29" id="Shape"></path>
            <path d="M412.81,116.69 L415.63,116.69" id="Shape"></path>
            <path d="M415.63,116.69 L415.63,118.49" id="Shape"></path>
            <path d="M412.81,118.49 L415.63,118.49" id="Shape"></path>
            <path d="M412.81,116.69 L412.81,118.49" id="Shape"></path>
            <path d="M412.81,113.9 L415.63,113.9" id="Shape"></path>
            <path d="M415.63,113.9 L415.63,115.7" id="Shape"></path>
            <path d="M412.81,115.7 L415.63,115.7" id="Shape"></path>
            <path d="M412.81,113.9 L412.81,115.7" id="Shape"></path>
            <path d="M412.81,111.1 L415.63,111.1" id="Shape"></path>
            <path d="M415.63,111.1 L415.63,112.9" id="Shape"></path>
            <path d="M412.81,112.9 L415.63,112.9" id="Shape"></path>
            <path d="M412.81,111.1 L412.81,112.9" id="Shape"></path>
            <path d="M432.35,130.66 L435.16,130.66" id="Shape"></path>
            <path d="M435.16,130.66 L435.16,132.46" id="Shape"></path>
            <path d="M432.35,132.46 L435.16,132.46" id="Shape"></path>
            <path d="M432.35,130.66 L432.35,132.46" id="Shape"></path>
            <path d="M432.35,127.87 L435.16,127.87" id="Shape"></path>
            <path d="M435.16,127.87 L435.16,129.67" id="Shape"></path>
            <path d="M432.35,129.67 L435.16,129.67" id="Shape"></path>
            <path d="M432.35,127.87 L432.35,129.67" id="Shape"></path>
            <path d="M432.35,125.07 L435.16,125.07" id="Shape"></path>
            <path d="M435.16,125.07 L435.16,126.87" id="Shape"></path>
            <path d="M432.35,126.87 L435.16,126.87" id="Shape"></path>
            <path d="M432.35,125.07 L432.35,126.87" id="Shape"></path>
            <path d="M432.35,122.28 L435.16,122.28" id="Shape"></path>
            <path d="M435.16,122.28 L435.16,124.08" id="Shape"></path>
            <path d="M432.35,124.08 L435.16,124.08" id="Shape"></path>
            <path d="M432.35,122.28 L432.35,124.08" id="Shape"></path>
            <path d="M432.35,119.49 L435.16,119.49" id="Shape"></path>
            <path d="M435.16,119.49 L435.16,121.29" id="Shape"></path>
            <path d="M432.35,121.29 L435.16,121.29" id="Shape"></path>
            <path d="M432.35,119.49 L432.35,121.29" id="Shape"></path>
            <path d="M432.35,116.69 L435.16,116.69" id="Shape"></path>
            <path d="M435.16,116.69 L435.16,118.49" id="Shape"></path>
            <path d="M432.35,118.49 L435.16,118.49" id="Shape"></path>
            <path d="M432.35,116.69 L432.35,118.49" id="Shape"></path>
            <path d="M432.35,113.9 L435.16,113.9" id="Shape"></path>
            <path d="M435.16,113.9 L435.16,115.7" id="Shape"></path>
            <path d="M432.35,115.7 L435.16,115.7" id="Shape"></path>
            <path d="M432.35,113.9 L432.35,115.7" id="Shape"></path>
            <path d="M432.35,111.1 L435.16,111.1" id="Shape"></path>
            <path d="M435.16,111.1 L435.16,112.9" id="Shape"></path>
            <path d="M432.35,112.9 L435.16,112.9" id="Shape"></path>
            <path d="M432.35,111.1 L432.35,112.9" id="Shape"></path>
            <path d="M451.89,130.66 L454.7,130.66" id="Shape"></path>
            <path d="M454.7,130.66 L454.7,132.46" id="Shape"></path>
            <path d="M451.89,132.46 L454.7,132.46" id="Shape"></path>
            <path d="M451.89,130.66 L451.89,132.46" id="Shape"></path>
            <path d="M451.89,127.87 L454.7,127.87" id="Shape"></path>
            <path d="M454.7,127.87 L454.7,129.67" id="Shape"></path>
            <path d="M451.89,129.67 L454.7,129.67" id="Shape"></path>
            <path d="M451.89,127.87 L451.89,129.67" id="Shape"></path>
            <path d="M451.89,125.07 L454.7,125.07" id="Shape"></path>
            <path d="M454.7,125.07 L454.7,126.87" id="Shape"></path>
            <path d="M451.89,126.87 L454.7,126.87" id="Shape"></path>
            <path d="M451.89,125.07 L451.89,126.87" id="Shape"></path>
            <path d="M451.89,122.28 L454.7,122.28" id="Shape"></path>
            <path d="M454.7,122.28 L454.7,124.08" id="Shape"></path>
            <path d="M451.89,124.08 L454.7,124.08" id="Shape"></path>
            <path d="M451.89,122.28 L451.89,124.08" id="Shape"></path>
            <path d="M451.89,119.49 L454.7,119.49" id="Shape"></path>
            <path d="M454.7,119.49 L454.7,121.29" id="Shape"></path>
            <path d="M451.89,121.29 L454.7,121.29" id="Shape"></path>
            <path d="M451.89,119.49 L451.89,121.29" id="Shape"></path>
            <path d="M451.89,116.69 L454.7,116.69" id="Shape"></path>
            <path d="M454.7,116.69 L454.7,118.49" id="Shape"></path>
            <path d="M451.89,118.49 L454.7,118.49" id="Shape"></path>
            <path d="M451.89,116.69 L451.89,118.49" id="Shape"></path>
            <path d="M451.89,113.9 L454.7,113.9" id="Shape"></path>
            <path d="M454.7,113.9 L454.7,115.7" id="Shape"></path>
            <path d="M451.89,115.7 L454.7,115.7" id="Shape"></path>
            <path d="M451.89,113.9 L451.89,115.7" id="Shape"></path>
            <path d="M451.89,111.1 L454.7,111.1" id="Shape"></path>
            <path d="M454.7,111.1 L454.7,112.9" id="Shape"></path>
            <path d="M451.89,112.9 L454.7,112.9" id="Shape"></path>
            <path d="M451.89,111.1 L451.89,112.9" id="Shape"></path>
            <path d="M334.87,118.25 L328.31,118.25" id="Shape"></path>
            <path d="M328.31,118.25 L328.31,119.56" id="Shape"></path>
            <path d="M328.31,119.56 L334.87,119.56" id="Shape"></path>
            <path d="M334.87,119.56 L334.87,118.25" id="Shape"></path>
            <path d="M371.38,148.25 L401.7,148.25" id="Shape"></path>
            <path d="M371.38,148.25 L371.38,88.49" id="Shape"></path>
            <path d="M371.38,88.49 L401.7,88.49" id="Shape"></path>
            <path d="M376.99,142.59 L396.08,142.59" id="Shape"></path>
            <path d="M376.99,142.59 L376.99,100" id="Shape"></path>
            <path d="M376.99,100 L396.08,100" id="Shape"></path>
            <path d="M396.08,142.59 L396.08,100" id="Shape"></path>
            <path d="M390.14,111.08 L382.93,111.08" id="Shape"></path>
            <path d="M382.93,111.08 L382.93,112.52" id="Shape"></path>
            <path d="M382.93,112.52 L390.14,112.52" id="Shape"></path>
            <path d="M390.14,112.52 L390.14,111.08" id="Shape"></path>
            <path d="M401.7,148.25 L401.7,88.49" id="Shape"></path>
            <path d="M433.43,82.79 L432.92,86.77 M432.92,86.77 L432.69,90.77 M432.69,90.77 L432.74,94.77 M432.74,94.77 L433.08,98.76 M433.08,98.76 L433.69,102.72" id="Shape"></path>
            <path d="M553.78,107.88 L525.47,107.88" id="Shape"></path>
            <path d="M551.3,131.86 L555.42,119.87" id="Shape"></path>
            <path d="M545.46,119.87 L553.78,107.88" id="Shape"></path>
            <path d="M555.42,119.87 L548.7,115.21" id="Shape"></path>
            <path d="M557.05,131.86 L552.7,127.78" id="Shape"></path>
            <path d="M530.37,71.92 L519.96,148.25" id="Shape"></path>
            <path d="M519.96,148.25 L539.62,107.88" id="Shape"></path>
            <path d="M527.95,131.86 L523.83,119.87" id="Shape"></path>
            <path d="M533.79,119.87 L525.47,107.88" id="Shape"></path>
            <path d="M523.83,119.87 L530.55,115.21" id="Shape"></path>
            <path d="M522.2,131.86 L526.55,127.78" id="Shape"></path>
            <path d="M523.83,119.87 L533.79,119.87" id="Shape"></path>
            <path d="M522.2,131.86 L527.95,131.86" id="Shape"></path>
            <path d="M555.42,119.87 L545.46,119.87" id="Shape"></path>
            <path d="M557.05,131.86 L551.3,131.86" id="Shape"></path>
            <path d="M551.83,93.59 L527.42,93.59" id="Shape"></path>
            <path d="M553.78,107.88 L528.89,82.76" id="Shape"></path>
            <path d="M535.06,88.98 L528.04,88.98" id="Shape"></path>
            <path d="M535.06,88.98 L527.42,93.59" id="Shape"></path>
            <path d="M535.06,98.2 L526.79,98.2" id="Shape"></path>
            <path d="M535.06,98.2 L527.42,93.59" id="Shape"></path>
            <path d="M525.47,107.88 L550.36,82.76" id="Shape"></path>
            <path d="M550.36,82.76 L539.62,71.92" id="Shape"></path>
            <path d="M528.89,82.76 L539.62,71.92" id="Shape"></path>
            <path d="M548.88,71.92 L530.37,71.92" id="Shape"></path>
            <path d="M544.19,88.98 L551.2,88.98" id="Shape"></path>
            <path d="M544.19,88.98 L551.83,93.59" id="Shape"></path>
            <path d="M544.19,98.2 L552.46,98.2" id="Shape"></path>
            <path d="M544.19,98.2 L551.83,93.59" id="Shape"></path>
            <path d="M529.89,75.47 L549.36,75.47" id="Shape"></path>
            <path d="M548.88,71.92 L543.14,75.47" id="Shape"></path>
            <path d="M530.37,71.92 L536.11,75.47" id="Shape"></path>
            <path d="M548.88,71.92 L566.76,0.08" id="Shape"></path>
            <path d="M550.94,63.65 L528.31,63.65" id="Shape"></path>
            <path d="M548.88,71.92 L539.62,63.65" id="Shape"></path>
            <path d="M530.37,71.92 L512.48,0.08" id="Shape"></path>
            <path d="M530.37,71.92 L539.62,63.65" id="Shape"></path>
            <path d="M556.69,40.54 L539.62,63.65" id="Shape"></path>
            <path d="M566.76,0.08 L553.36,18.23" id="Shape"></path>
            <path d="M556.69,40.54 L553.36,18.23" id="Shape"></path>
            <path d="M517,18.23 L562.25,18.23" id="Shape"></path>
            <path d="M515.3,11.41 L563.94,11.41" id="Shape"></path>
            <path d="M580.7,18.23 L563.94,11.41" id="Shape"></path>
            <path d="M563.94,11.41 L561.62,7.05" id="Shape"></path>
            <path d="M561.62,7.05 L565.34,5.81" id="Shape"></path>
            <path d="M562.25,18.23 L567.67,12.92" id="Shape"></path>
            <path d="M567.67,12.92 L570.42,18.23" id="Shape"></path>
            <path d="M570.42,18.23 L572.88,15.04" id="Shape"></path>
            <path d="M572.88,15.04 L575.53,18.23" id="Shape"></path>
            <path d="M562.25,18.23 L558.4,11.41" id="Shape"></path>
            <path d="M553.3,18.23 L548.74,11.41" id="Shape"></path>
            <path d="M553.36,18.23 L560.95,23.45" id="Shape"></path>
            <path d="M560.95,23.45 L554.63,26.7" id="Shape"></path>
            <path d="M554.63,26.7 L559.22,30.39" id="Shape"></path>
            <path d="M559.22,30.39 L555.69,33.84" id="Shape"></path>
            <path d="M555.69,33.84 L557.82,36" id="Shape"></path>
            <path d="M539.62,63.65 L552.5,57.37" id="Shape"></path>
            <path d="M552.5,57.37 L547.52,52.96" id="Shape"></path>
            <path d="M547.52,52.96 L554.69,48.56" id="Shape"></path>
            <path d="M554.69,48.56 L552.57,46.12" id="Shape"></path>
            <path d="M552.57,46.12 L555.3,46.12" id="Shape"></path>
            <path d="M522.56,40.54 L539.62,63.65" id="Shape"></path>
            <path d="M512.48,0.08 L525.89,18.23" id="Shape"></path>
            <path d="M522.56,40.54 L525.89,18.23" id="Shape"></path>
            <path d="M515.3,11.41 L517.63,7.05" id="Shape"></path>
            <path d="M517.63,7.05 L513.91,5.81" id="Shape"></path>
            <path d="M517,18.23 L520.85,11.41" id="Shape"></path>
            <path d="M525.89,18.23 L518.3,23.45" id="Shape"></path>
            <path d="M518.3,23.45 L524.62,26.7" id="Shape"></path>
            <path d="M524.62,26.7 L520.03,30.39" id="Shape"></path>
            <path d="M520.03,30.39 L523.56,33.84" id="Shape"></path>
            <path d="M523.56,33.84 L521.43,36" id="Shape"></path>
            <path d="M539.62,63.65 L526.75,57.37" id="Shape"></path>
            <path d="M526.75,57.37 L531.73,52.96" id="Shape"></path>
            <path d="M531.73,52.96 L524.56,48.56" id="Shape"></path>
            <path d="M524.56,48.56 L526.68,46.12" id="Shape"></path>
            <path d="M526.68,46.12 L523.95,46.12" id="Shape"></path>
            <path d="M562.25,18.23 L580.7,18.23" id="Shape"></path>
            <path d="M498.55,18.23 L498.55,21.96" id="Shape"></path>
            <path d="M496.86,22.63 L497.06,22.94 M497.06,22.94 L497.59,23.18 M497.59,23.18 L498.35,23.29 M498.35,23.29 L499.15,23.25 M499.15,23.25 L499.81,23.07 M499.81,23.07 L500.19,22.79 M500.19,22.79 L500.19,22.47 M500.19,22.47 L499.81,22.18 M499.81,22.18 L499.15,22 M499.15,22 L498.35,21.96 M498.35,21.96 L497.59,22.08 M497.59,22.08 L497.06,22.32 M497.06,22.32 L496.86,22.63" id="Shape"></path>
            <path d="M496.86,23.97 L497.06,24.28 M497.06,24.28 L497.59,24.52 M497.59,24.52 L498.35,24.63 M498.35,24.63 L499.15,24.59 M499.15,24.59 L499.81,24.41 M499.81,24.41 L500.19,24.13 M500.19,24.13 L500.19,23.81 M500.19,23.81 L499.81,23.52 M499.81,23.52 L499.15,23.34 M499.15,23.34 L498.35,23.3 M498.35,23.3 L497.59,23.42 M497.59,23.42 L497.06,23.66 M497.06,23.66 L496.86,23.97" id="Shape"></path>
            <path d="M496.86,25.3 L497.06,25.61 M497.06,25.61 L497.59,25.85 M497.59,25.85 L498.35,25.97 M498.35,25.97 L499.15,25.93 M499.15,25.93 L499.81,25.75 M499.81,25.75 L500.19,25.46 M500.19,25.46 L500.19,25.14 M500.19,25.14 L499.81,24.86 M499.81,24.86 L499.15,24.68 M499.15,24.68 L498.35,24.64 M498.35,24.64 L497.59,24.75 M497.59,24.75 L497.06,24.99 M497.06,24.99 L496.86,25.3" id="Shape"></path>
            <path d="M496.86,26.64 L497.06,26.95 M497.06,26.95 L497.59,27.19 M497.59,27.19 L498.35,27.31 M498.35,27.31 L499.15,27.27 M499.15,27.27 L499.81,27.09 M499.81,27.09 L500.19,26.8 M500.19,26.8 L500.19,26.48 M500.19,26.48 L499.81,26.2 M499.81,26.2 L499.15,26.02 M499.15,26.02 L498.35,25.98 M498.35,25.98 L497.59,26.09 M497.59,26.09 L497.06,26.33 M497.06,26.33 L496.86,26.64" id="Shape"></path>
            <path d="M496.86,27.98 L497.06,28.29 M497.06,28.29 L497.59,28.53 M497.59,28.53 L498.35,28.64 M498.35,28.64 L499.15,28.6 M499.15,28.6 L499.81,28.42 M499.81,28.42 L500.19,28.14 M500.19,28.14 L500.19,27.82 M500.19,27.82 L499.81,27.54 M499.81,27.54 L499.15,27.35 M499.15,27.35 L498.35,27.32 M498.35,27.32 L497.59,27.43 M497.59,27.43 L497.06,27.67 M497.06,27.67 L496.86,27.98" id="Shape"></path>
            <path d="M498.55,28.65 L498.55,31.93" id="Shape"></path>
            <path d="M497.57,32.91 L497.75,32.33 M497.75,32.33 L498.25,31.98 M498.25,31.98 L498.85,31.98 M498.85,31.98 L499.35,32.33 M499.35,32.33 L499.53,32.91 M499.53,32.91 L499.35,33.49 M499.35,33.49 L498.85,33.85 M498.85,33.85 L498.25,33.85 M498.25,33.85 L497.75,33.49 M497.75,33.49 L497.57,32.91" id="Shape"></path>
            <path d="M498.55,18.23 L515.3,11.41" id="Shape"></path>
            <path d="M517,18.23 L511.58,12.92" id="Shape"></path>
            <path d="M511.58,12.92 L508.83,18.23" id="Shape"></path>
            <path d="M508.83,18.23 L506.37,15.04" id="Shape"></path>
            <path d="M506.37,15.04 L503.72,18.23" id="Shape"></path>
            <path d="M517,18.23 L498.55,18.23" id="Shape"></path>
            <path d="M540.47,33.42 L545.27,36.16 M545.27,36.16 L550.23,38.61 M550.23,38.61 L555.33,40.76 M555.33,40.76 L560.55,42.6 M560.55,42.6 L565.87,44.12 M565.87,44.12 L571.27,45.32 M571.27,45.32 L576.73,46.19 M576.73,46.19 L582.24,46.73 M582.24,46.73 L587.76,46.95 M587.76,46.95 L593.29,46.82" id="Shape"></path>
            <path d="M499.39,33.42 L506.01,36.92 M506.01,36.92 L512.8,40.09 M512.8,40.09 L519.72,42.94 M519.72,42.94 L526.77,45.45 M526.77,45.45 L533.94,47.63 M533.94,47.63 L541.2,49.46 M541.2,49.46 L548.54,50.94 M548.54,50.94 L555.94,52.07 M555.94,52.07 L563.39,52.84 M563.39,52.84 L570.87,53.26 M570.87,53.26 L578.35,53.33 M578.35,53.33 L585.84,53.03 M585.84,53.03 L593.29,52.38" id="Shape"></path>
            <path d="M413.89,82.79 L413.38,86.77 M413.38,86.77 L413.15,90.77 M413.15,90.77 L413.2,94.77 M413.2,94.77 L413.54,98.76 M413.54,98.76 L414.16,102.72" id="Shape"></path>
            <path d="M452.96,82.79 L452.45,86.77 M452.45,86.77 L452.22,90.77 M452.22,90.77 L452.28,94.77 M452.28,94.77 L452.61,98.76 M452.61,98.76 L453.23,102.72" id="Shape"></path>
            <path d="M544.18,18.23 L548.74,11.41" id="Shape"></path>
            <path d="M544.18,18.23 L539.61,11.41" id="Shape"></path>
            <path d="M535.05,18.23 L539.61,11.41" id="Shape"></path>
            <path d="M535.05,18.23 L530.49,11.41" id="Shape"></path>
            <path d="M525.92,18.23 L530.49,11.41" id="Shape"></path>
        </g>
    </g>
</svg>